<svg width="536" height="482" viewBox="0 0 536 482" fill="none" xmlns="http://www.w3.org/2000/svg">
<rect width="536" height="482" rx="29" fill="white"/>
<path d="M34.372 44V34.2H35.73L41.722 42.222L41.498 42.348C41.4607 42.1147 41.428 41.8627 41.4 41.592C41.372 41.312 41.344 41.018 41.316 40.71C41.2973 40.3927 41.2787 40.0613 41.26 39.716C41.2507 39.3613 41.2413 38.9927 41.232 38.61C41.2227 38.2273 41.218 37.8307 41.218 37.42V34.2H42.73V44H41.344L35.45 36.272L35.604 36.076C35.6507 36.6453 35.688 37.1307 35.716 37.532C35.7533 37.924 35.7813 38.26 35.8 38.54C35.828 38.8107 35.8467 39.0347 35.856 39.212C35.8653 39.38 35.87 39.52 35.87 39.632C35.8793 39.744 35.884 39.842 35.884 39.926V44H34.372ZM47.9376 44.14C47.3309 44.14 46.7756 43.972 46.2716 43.636C45.7769 43.3 45.3802 42.8427 45.0816 42.264C44.7829 41.6853 44.6336 41.032 44.6336 40.304C44.6336 39.5667 44.7829 38.9133 45.0816 38.344C45.3896 37.7653 45.8002 37.3127 46.3136 36.986C46.8362 36.6593 47.4196 36.496 48.0636 36.496C48.4462 36.496 48.7962 36.552 49.1136 36.664C49.4309 36.776 49.7062 36.9347 49.9396 37.14C50.1822 37.336 50.3782 37.5647 50.5276 37.826C50.6862 38.0873 50.7842 38.3673 50.8216 38.666L50.4996 38.554V36.65H51.9556V44H50.4996V42.25L50.8356 42.152C50.7796 42.404 50.6629 42.6513 50.4856 42.894C50.3176 43.1273 50.0982 43.3373 49.8276 43.524C49.5662 43.7107 49.2722 43.86 48.9456 43.972C48.6282 44.084 48.2922 44.14 47.9376 44.14ZM48.3156 42.81C48.7542 42.81 49.1416 42.7027 49.4776 42.488C49.8136 42.2733 50.0749 41.9793 50.2616 41.606C50.4576 41.2233 50.5556 40.7893 50.5556 40.304C50.5556 39.828 50.4576 39.4033 50.2616 39.03C50.0749 38.6567 49.8136 38.3627 49.4776 38.148C49.1416 37.9333 48.7542 37.826 48.3156 37.826C47.8862 37.826 47.5036 37.9333 47.1676 38.148C46.8409 38.3627 46.5796 38.6567 46.3836 39.03C46.1969 39.4033 46.1036 39.828 46.1036 40.304C46.1036 40.7893 46.1969 41.2233 46.3836 41.606C46.5796 41.9793 46.8409 42.2733 47.1676 42.488C47.5036 42.7027 47.8862 42.81 48.3156 42.81ZM53.9409 44V36.65H55.3969V38.218L55.1309 38.386C55.2056 38.1433 55.3223 37.91 55.4809 37.686C55.6489 37.462 55.8496 37.266 56.0829 37.098C56.3256 36.9207 56.5823 36.7807 56.8529 36.678C57.1329 36.5753 57.4176 36.524 57.7069 36.524C58.1269 36.524 58.4956 36.594 58.8129 36.734C59.1303 36.874 59.3916 37.084 59.5969 37.364C59.8023 37.644 59.9516 37.994 60.0449 38.414L59.8209 38.358L59.9189 38.12C60.0216 37.9053 60.1616 37.7047 60.3389 37.518C60.5256 37.322 60.7356 37.1493 60.9689 37C61.2023 36.8507 61.4496 36.734 61.7109 36.65C61.9723 36.566 62.2289 36.524 62.4809 36.524C63.0316 36.524 63.4843 36.636 63.8389 36.86C64.2029 37.084 64.4736 37.4247 64.6509 37.882C64.8376 38.3393 64.9309 38.9087 64.9309 39.59V44H63.4749V39.674C63.4749 39.254 63.4189 38.9133 63.3069 38.652C63.2043 38.3813 63.0456 38.1807 62.8309 38.05C62.6163 37.9193 62.3409 37.854 62.0049 37.854C61.7436 37.854 61.4963 37.9007 61.2629 37.994C61.0389 38.078 60.8429 38.1993 60.6749 38.358C60.5069 38.5167 60.3763 38.7033 60.2829 38.918C60.1896 39.1233 60.1429 39.352 60.1429 39.604V44H58.6869V39.646C58.6869 39.2633 58.6309 38.9413 58.5189 38.68C58.4069 38.4093 58.2436 38.204 58.0289 38.064C57.8143 37.924 57.5529 37.854 57.2449 37.854C56.9836 37.854 56.7409 37.9007 56.5169 37.994C56.2929 38.078 56.0969 38.1993 55.9289 38.358C55.7609 38.5073 55.6303 38.6893 55.5369 38.904C55.4436 39.1093 55.3969 39.3333 55.3969 39.576V44H53.9409ZM70.2915 44.14C69.5355 44.14 68.8635 43.9813 68.2755 43.664C67.6968 43.3373 67.2395 42.894 66.9035 42.334C66.5768 41.774 66.4135 41.13 66.4135 40.402C66.4135 39.8233 66.5068 39.296 66.6935 38.82C66.8802 38.344 67.1368 37.9333 67.4635 37.588C67.7995 37.2333 68.1962 36.9627 68.6535 36.776C69.1202 36.58 69.6242 36.482 70.1655 36.482C70.6415 36.482 71.0848 36.5753 71.4955 36.762C71.9062 36.9393 72.2608 37.1867 72.5595 37.504C72.8675 37.8213 73.1008 38.1993 73.2595 38.638C73.4275 39.0673 73.5068 39.5387 73.4975 40.052L73.4835 40.668H67.4775L67.1555 39.52H72.2375L72.0275 39.758V39.422C71.9995 39.114 71.8968 38.8387 71.7195 38.596C71.5422 38.3533 71.3182 38.162 71.0475 38.022C70.7768 37.882 70.4828 37.812 70.1655 37.812C69.6615 37.812 69.2368 37.91 68.8915 38.106C68.5462 38.2927 68.2848 38.5727 68.1075 38.946C67.9302 39.31 67.8415 39.7627 67.8415 40.304C67.8415 40.8173 67.9488 41.2653 68.1635 41.648C68.3782 42.0213 68.6815 42.3107 69.0735 42.516C69.4655 42.7213 69.9182 42.824 70.4315 42.824C70.7955 42.824 71.1315 42.7633 71.4395 42.642C71.7568 42.5207 72.0975 42.3013 72.4615 41.984L73.1895 43.006C72.9655 43.23 72.6902 43.426 72.3635 43.594C72.0462 43.762 71.7055 43.8973 71.3415 44C70.9868 44.0933 70.6368 44.14 70.2915 44.14Z" fill="#70737C"/>
<rect x="33.5" y="53.5" width="470" height="55" rx="3.5" stroke="#EFEFEF"/>
<path d="M61.704 87V81.416L61.816 82.2L57.288 75.8H58.808L62.52 81.112L62.184 81.08L65.592 75.8H67.032L62.696 82.376L62.936 81.288V87H61.704ZM70.8953 87.16C70.0633 87.16 69.3219 86.9733 68.6713 86.6C68.0313 86.2267 67.5246 85.7093 67.1513 85.048C66.7886 84.3867 66.6073 83.6347 66.6073 82.792C66.6073 81.96 66.7886 81.2187 67.1513 80.568C67.5246 79.9173 68.0313 79.4053 68.6713 79.032C69.3219 78.6587 70.0633 78.472 70.8953 78.472C71.7166 78.472 72.4473 78.6587 73.0873 79.032C73.7379 79.4053 74.2446 79.9173 74.6073 80.568C74.9806 81.2187 75.1673 81.96 75.1673 82.792C75.1673 83.6347 74.9806 84.3867 74.6073 85.048C74.2446 85.7093 73.7379 86.2267 73.0873 86.6C72.4473 86.9733 71.7166 87.16 70.8953 87.16ZM70.8953 86.024C71.4819 86.024 72.0046 85.8853 72.4633 85.608C72.9219 85.32 73.2793 84.936 73.5353 84.456C73.7913 83.9653 73.9193 83.4107 73.9193 82.792C73.9193 82.1733 73.7913 81.624 73.5353 81.144C73.2793 80.664 72.9219 80.2907 72.4633 80.024C72.0046 79.7467 71.4819 79.608 70.8953 79.608C70.3086 79.608 69.7806 79.7467 69.3113 80.024C68.8526 80.2907 68.4899 80.6693 68.2233 81.16C67.9673 81.64 67.8446 82.184 67.8553 82.792C67.8446 83.4107 67.9673 83.9653 68.2233 84.456C68.4899 84.936 68.8526 85.32 69.3113 85.608C69.7806 85.8853 70.3086 86.024 70.8953 86.024ZM79.878 87.16C79.238 87.16 78.694 87.032 78.246 86.776C77.8087 86.5093 77.4727 86.1253 77.238 85.624C77.014 85.1227 76.902 84.4987 76.902 83.752V78.648H78.118V83.512C78.118 84.0773 78.1927 84.552 78.342 84.936C78.502 85.3093 78.7367 85.592 79.046 85.784C79.366 85.976 79.7553 86.072 80.214 86.072C80.566 86.072 80.8913 86.0133 81.19 85.896C81.4887 85.768 81.75 85.5973 81.974 85.384C82.198 85.1707 82.374 84.92 82.502 84.632C82.63 84.344 82.694 84.04 82.694 83.72V78.648H83.894V87H82.71L82.662 85.24L82.854 85.144C82.726 85.5173 82.5127 85.8587 82.214 86.168C81.9153 86.4667 81.558 86.7067 81.142 86.888C80.7367 87.0693 80.3153 87.16 79.878 87.16ZM86.2305 87V78.648H87.4305L87.4625 80.872L87.3345 80.568C87.4518 80.1947 87.6385 79.848 87.8945 79.528C88.1612 79.208 88.4758 78.952 88.8385 78.76C89.2012 78.568 89.6012 78.472 90.0385 78.472C90.2198 78.472 90.3905 78.488 90.5505 78.52C90.7105 78.5413 90.8438 78.5733 90.9505 78.616L90.6145 79.96C90.4758 79.896 90.3318 79.8533 90.1825 79.832C90.0438 79.8 89.9105 79.784 89.7825 79.784C89.4198 79.784 89.0945 79.848 88.8065 79.976C88.5185 80.104 88.2732 80.2853 88.0705 80.52C87.8678 80.744 87.7132 81.0053 87.6065 81.304C87.4998 81.6027 87.4465 81.9227 87.4465 82.264V87H86.2305ZM96.6836 87V78.648H97.8676L97.9156 80.392L97.7236 80.472C97.8303 80.1093 98.0383 79.7787 98.3476 79.48C98.657 79.1813 99.025 78.9413 99.4516 78.76C99.889 78.568 100.337 78.472 100.796 78.472C101.414 78.472 101.932 78.5947 102.348 78.84C102.764 79.0853 103.078 79.464 103.292 79.976C103.505 80.488 103.612 81.1387 103.612 81.928V87H102.396V81.992C102.396 81.4373 102.321 80.984 102.172 80.632C102.033 80.2693 101.814 80.0027 101.516 79.832C101.217 79.6613 100.849 79.5813 100.412 79.592C100.049 79.592 99.713 79.656 99.4036 79.784C99.0943 79.9013 98.8276 80.0667 98.6036 80.28C98.3796 80.4933 98.2036 80.7387 98.0756 81.016C97.9476 81.2933 97.8836 81.592 97.8836 81.912V87H97.2916C97.217 87 97.1316 87 97.0356 87C96.9396 87 96.8223 87 96.6836 87ZM109.166 87.16C108.441 87.16 107.785 86.9733 107.198 86.6C106.612 86.216 106.148 85.6987 105.806 85.048C105.465 84.3867 105.294 83.64 105.294 82.808C105.294 81.9653 105.47 81.2187 105.822 80.568C106.174 79.9173 106.644 79.4053 107.23 79.032C107.828 78.6587 108.494 78.472 109.23 78.472C109.668 78.472 110.073 78.536 110.446 78.664C110.82 78.792 111.15 78.9733 111.438 79.208C111.737 79.432 111.982 79.6987 112.174 80.008C112.377 80.3067 112.516 80.632 112.59 80.984L112.238 80.808L112.286 78.648H113.486V87H112.27V84.952L112.59 84.744C112.516 85.064 112.372 85.3733 112.158 85.672C111.945 85.96 111.684 86.216 111.374 86.44C111.076 86.664 110.734 86.84 110.35 86.968C109.977 87.096 109.582 87.16 109.166 87.16ZM109.438 86.008C109.993 86.008 110.489 85.8747 110.926 85.608C111.364 85.3307 111.705 84.952 111.95 84.472C112.206 83.9813 112.334 83.4267 112.334 82.808C112.334 82.1893 112.206 81.64 111.95 81.16C111.705 80.68 111.364 80.3013 110.926 80.024C110.489 79.7467 109.993 79.608 109.438 79.608C108.873 79.608 108.372 79.7467 107.934 80.024C107.508 80.3013 107.166 80.68 106.91 81.16C106.665 81.64 106.542 82.1893 106.542 82.808C106.542 83.416 106.665 83.9653 106.91 84.456C107.156 84.936 107.497 85.3147 107.934 85.592C108.372 85.8693 108.873 86.008 109.438 86.008ZM115.808 87V78.648H117.008L117.04 80.552L116.8 80.632C116.886 80.312 117.024 80.024 117.216 79.768C117.419 79.5013 117.659 79.272 117.936 79.08C118.214 78.888 118.518 78.744 118.848 78.648C119.179 78.5413 119.526 78.488 119.888 78.488C120.326 78.488 120.715 78.5627 121.056 78.712C121.408 78.8507 121.702 79.096 121.936 79.448C122.182 79.7893 122.368 80.2427 122.496 80.808L122.208 80.664L122.32 80.392C122.427 80.1467 122.582 79.912 122.784 79.688C122.998 79.4533 123.238 79.2453 123.504 79.064C123.782 78.8827 124.08 78.744 124.4 78.648C124.731 78.5413 125.067 78.488 125.408 78.488C125.995 78.488 126.491 78.616 126.896 78.872C127.302 79.1173 127.606 79.496 127.808 80.008C128.022 80.52 128.128 81.1707 128.128 81.96V87H126.896V82.024C126.896 81.4693 126.827 81.016 126.688 80.664C126.55 80.312 126.342 80.0507 126.064 79.88C125.798 79.6987 125.456 79.608 125.04 79.608C124.678 79.608 124.342 79.672 124.032 79.8C123.734 79.9173 123.472 80.088 123.248 80.312C123.035 80.5253 122.864 80.7707 122.736 81.048C122.619 81.3253 122.56 81.624 122.56 81.944V87H121.344V82.008C121.344 81.4747 121.27 81.032 121.12 80.68C120.982 80.328 120.774 80.0613 120.496 79.88C120.219 79.6987 119.878 79.608 119.472 79.608C119.12 79.608 118.795 79.672 118.496 79.8C118.198 79.9173 117.936 80.0827 117.712 80.296C117.499 80.5093 117.328 80.7547 117.2 81.032C117.083 81.3093 117.024 81.608 117.024 81.928V87H115.808ZM134.082 87.16C133.25 87.16 132.509 86.9787 131.858 86.616C131.218 86.2533 130.717 85.7467 130.354 85.096C129.992 84.4453 129.81 83.6987 129.81 82.856C129.81 82.2053 129.912 81.6187 130.114 81.096C130.317 80.5627 130.6 80.0987 130.962 79.704C131.336 79.3093 131.778 79.0053 132.29 78.792C132.802 78.568 133.357 78.456 133.954 78.456C134.52 78.456 135.032 78.5573 135.49 78.76C135.96 78.9627 136.36 79.2453 136.69 79.608C137.032 79.96 137.288 80.3813 137.458 80.872C137.629 81.3627 137.704 81.9013 137.682 82.488L137.666 83.048H130.706L130.53 82.04H136.754L136.466 82.312V81.928C136.445 81.544 136.333 81.176 136.13 80.824C135.928 80.4613 135.64 80.168 135.266 79.944C134.904 79.72 134.466 79.608 133.954 79.608C133.357 79.608 132.84 79.7307 132.402 79.976C131.965 80.2107 131.629 80.5627 131.394 81.032C131.16 81.5013 131.042 82.0827 131.042 82.776C131.042 83.4373 131.17 84.0133 131.426 84.504C131.682 84.984 132.045 85.3573 132.514 85.624C132.994 85.8907 133.57 86.024 134.242 86.024C134.637 86.024 135.026 85.96 135.41 85.832C135.805 85.6933 136.237 85.4267 136.706 85.032L137.33 85.896C137.085 86.1413 136.792 86.36 136.45 86.552C136.109 86.7333 135.736 86.8827 135.33 87C134.925 87.1067 134.509 87.16 134.082 87.16Z" fill="#70737C"/>
<path d="M34.372 147V137.2H40.546V138.656H35.884V145.544H40.546V147H34.372ZM35.058 142.702V141.246H39.776V142.702H35.058ZM42.3416 143.71V142.282H46.3736V143.71H42.3416ZM48.0894 147V139.65H49.5454V141.218L49.2794 141.386C49.354 141.143 49.4707 140.91 49.6294 140.686C49.7974 140.462 49.998 140.266 50.2314 140.098C50.474 139.921 50.7307 139.781 51.0014 139.678C51.2814 139.575 51.566 139.524 51.8554 139.524C52.2754 139.524 52.644 139.594 52.9614 139.734C53.2787 139.874 53.54 140.084 53.7454 140.364C53.9507 140.644 54.1 140.994 54.1934 141.414L53.9694 141.358L54.0674 141.12C54.17 140.905 54.31 140.705 54.4874 140.518C54.674 140.322 54.884 140.149 55.1174 140C55.3507 139.851 55.598 139.734 55.8594 139.65C56.1207 139.566 56.3774 139.524 56.6294 139.524C57.18 139.524 57.6327 139.636 57.9874 139.86C58.3514 140.084 58.622 140.425 58.7994 140.882C58.986 141.339 59.0794 141.909 59.0794 142.59V147H57.6234V142.674C57.6234 142.254 57.5674 141.913 57.4554 141.652C57.3527 141.381 57.194 141.181 56.9794 141.05C56.7647 140.919 56.4894 140.854 56.1534 140.854C55.892 140.854 55.6447 140.901 55.4114 140.994C55.1874 141.078 54.9914 141.199 54.8234 141.358C54.6554 141.517 54.5247 141.703 54.4314 141.918C54.338 142.123 54.2914 142.352 54.2914 142.604V147H52.8354V142.646C52.8354 142.263 52.7794 141.941 52.6674 141.68C52.5554 141.409 52.392 141.204 52.1774 141.064C51.9627 140.924 51.7014 140.854 51.3934 140.854C51.132 140.854 50.8894 140.901 50.6654 140.994C50.4414 141.078 50.2454 141.199 50.0774 141.358C49.9094 141.507 49.7787 141.689 49.6854 141.904C49.592 142.109 49.5454 142.333 49.5454 142.576V147H48.0894ZM63.838 147.14C63.2313 147.14 62.676 146.972 62.172 146.636C61.6773 146.3 61.2806 145.843 60.982 145.264C60.6833 144.685 60.534 144.032 60.534 143.304C60.534 142.567 60.6833 141.913 60.982 141.344C61.29 140.765 61.7006 140.313 62.214 139.986C62.7366 139.659 63.32 139.496 63.964 139.496C64.3466 139.496 64.6966 139.552 65.014 139.664C65.3313 139.776 65.6066 139.935 65.84 140.14C66.0826 140.336 66.2786 140.565 66.428 140.826C66.5866 141.087 66.6846 141.367 66.722 141.666L66.4 141.554V139.65H67.856V147H66.4V145.25L66.736 145.152C66.68 145.404 66.5633 145.651 66.386 145.894C66.218 146.127 65.9986 146.337 65.728 146.524C65.4666 146.711 65.1726 146.86 64.846 146.972C64.5286 147.084 64.1926 147.14 63.838 147.14ZM64.216 145.81C64.6546 145.81 65.042 145.703 65.378 145.488C65.714 145.273 65.9753 144.979 66.162 144.606C66.358 144.223 66.456 143.789 66.456 143.304C66.456 142.828 66.358 142.403 66.162 142.03C65.9753 141.657 65.714 141.363 65.378 141.148C65.042 140.933 64.6546 140.826 64.216 140.826C63.7866 140.826 63.404 140.933 63.068 141.148C62.7413 141.363 62.48 141.657 62.284 142.03C62.0973 142.403 62.004 142.828 62.004 143.304C62.004 143.789 62.0973 144.223 62.284 144.606C62.48 144.979 62.7413 145.273 63.068 145.488C63.404 145.703 63.7866 145.81 64.216 145.81ZM70.1073 147V139.65H71.5493V147H70.1073ZM70.8073 138.026C70.4993 138.026 70.2613 137.947 70.0933 137.788C69.9253 137.629 69.8413 137.405 69.8413 137.116C69.8413 136.845 69.9253 136.626 70.0933 136.458C70.2707 136.29 70.5087 136.206 70.8073 136.206C71.1153 136.206 71.3533 136.285 71.5213 136.444C71.6893 136.603 71.7733 136.827 71.7733 137.116C71.7733 137.387 71.6847 137.606 71.5073 137.774C71.3393 137.942 71.106 138.026 70.8073 138.026ZM73.7938 147V136.64H75.2358V147H73.7938Z" fill="#70737C"/>
<rect x="33.5" y="156.5" width="470" height="55" rx="3.5" stroke="#EFEFEF"/>
<path d="M61.704 190V184.416L61.816 185.2L57.288 178.8H58.808L62.52 184.112L62.184 184.08L65.592 178.8H67.032L62.696 185.376L62.936 184.288V190H61.704ZM70.8953 190.16C70.0633 190.16 69.3219 189.973 68.6713 189.6C68.0313 189.227 67.5246 188.709 67.1513 188.048C66.7886 187.387 66.6073 186.635 66.6073 185.792C66.6073 184.96 66.7886 184.219 67.1513 183.568C67.5246 182.917 68.0313 182.405 68.6713 182.032C69.3219 181.659 70.0633 181.472 70.8953 181.472C71.7166 181.472 72.4473 181.659 73.0873 182.032C73.7379 182.405 74.2446 182.917 74.6073 183.568C74.9806 184.219 75.1673 184.96 75.1673 185.792C75.1673 186.635 74.9806 187.387 74.6073 188.048C74.2446 188.709 73.7379 189.227 73.0873 189.6C72.4473 189.973 71.7166 190.16 70.8953 190.16ZM70.8953 189.024C71.4819 189.024 72.0046 188.885 72.4633 188.608C72.9219 188.32 73.2793 187.936 73.5353 187.456C73.7913 186.965 73.9193 186.411 73.9193 185.792C73.9193 185.173 73.7913 184.624 73.5353 184.144C73.2793 183.664 72.9219 183.291 72.4633 183.024C72.0046 182.747 71.4819 182.608 70.8953 182.608C70.3086 182.608 69.7806 182.747 69.3113 183.024C68.8526 183.291 68.4899 183.669 68.2233 184.16C67.9673 184.64 67.8446 185.184 67.8553 185.792C67.8446 186.411 67.9673 186.965 68.2233 187.456C68.4899 187.936 68.8526 188.32 69.3113 188.608C69.7806 188.885 70.3086 189.024 70.8953 189.024ZM79.878 190.16C79.238 190.16 78.694 190.032 78.246 189.776C77.8087 189.509 77.4727 189.125 77.238 188.624C77.014 188.123 76.902 187.499 76.902 186.752V181.648H78.118V186.512C78.118 187.077 78.1927 187.552 78.342 187.936C78.502 188.309 78.7367 188.592 79.046 188.784C79.366 188.976 79.7553 189.072 80.214 189.072C80.566 189.072 80.8913 189.013 81.19 188.896C81.4887 188.768 81.75 188.597 81.974 188.384C82.198 188.171 82.374 187.92 82.502 187.632C82.63 187.344 82.694 187.04 82.694 186.72V181.648H83.894V190H82.71L82.662 188.24L82.854 188.144C82.726 188.517 82.5127 188.859 82.214 189.168C81.9153 189.467 81.558 189.707 81.142 189.888C80.7367 190.069 80.3153 190.16 79.878 190.16ZM86.2305 190V181.648H87.4305L87.4625 183.872L87.3345 183.568C87.4518 183.195 87.6385 182.848 87.8945 182.528C88.1612 182.208 88.4758 181.952 88.8385 181.76C89.2012 181.568 89.6012 181.472 90.0385 181.472C90.2198 181.472 90.3905 181.488 90.5505 181.52C90.7105 181.541 90.8438 181.573 90.9505 181.616L90.6145 182.96C90.4758 182.896 90.3318 182.853 90.1825 182.832C90.0438 182.8 89.9105 182.784 89.7825 182.784C89.4198 182.784 89.0945 182.848 88.8065 182.976C88.5185 183.104 88.2732 183.285 88.0705 183.52C87.8678 183.744 87.7132 184.005 87.6065 184.304C87.4998 184.603 87.4465 184.923 87.4465 185.264V190H86.2305ZM100.364 190.16C99.5316 190.16 98.7903 189.979 98.1396 189.616C97.4996 189.253 96.9983 188.747 96.6356 188.096C96.273 187.445 96.0916 186.699 96.0916 185.856C96.0916 185.205 96.193 184.619 96.3956 184.096C96.5983 183.563 96.881 183.099 97.2436 182.704C97.617 182.309 98.0596 182.005 98.5716 181.792C99.0836 181.568 99.6383 181.456 100.236 181.456C100.801 181.456 101.313 181.557 101.772 181.76C102.241 181.963 102.641 182.245 102.972 182.608C103.313 182.96 103.569 183.381 103.74 183.872C103.91 184.363 103.985 184.901 103.964 185.488L103.948 186.048H96.9876L96.8116 185.04H103.036L102.748 185.312V184.928C102.726 184.544 102.614 184.176 102.412 183.824C102.209 183.461 101.921 183.168 101.548 182.944C101.185 182.72 100.748 182.608 100.236 182.608C99.6383 182.608 99.121 182.731 98.6836 182.976C98.2463 183.211 97.9103 183.563 97.6756 184.032C97.441 184.501 97.3236 185.083 97.3236 185.776C97.3236 186.437 97.4516 187.013 97.7076 187.504C97.9636 187.984 98.3263 188.357 98.7956 188.624C99.2756 188.891 99.8516 189.024 100.524 189.024C100.918 189.024 101.308 188.96 101.692 188.832C102.086 188.693 102.518 188.427 102.988 188.032L103.612 188.896C103.366 189.141 103.073 189.36 102.732 189.552C102.39 189.733 102.017 189.883 101.612 190C101.206 190.107 100.79 190.16 100.364 190.16ZM105.652 190V181.648H106.852L106.884 183.552L106.644 183.632C106.729 183.312 106.868 183.024 107.06 182.768C107.263 182.501 107.503 182.272 107.78 182.08C108.057 181.888 108.361 181.744 108.692 181.648C109.023 181.541 109.369 181.488 109.732 181.488C110.169 181.488 110.559 181.563 110.9 181.712C111.252 181.851 111.545 182.096 111.78 182.448C112.025 182.789 112.212 183.243 112.34 183.808L112.052 183.664L112.164 183.392C112.271 183.147 112.425 182.912 112.628 182.688C112.841 182.453 113.081 182.245 113.348 182.064C113.625 181.883 113.924 181.744 114.244 181.648C114.575 181.541 114.911 181.488 115.252 181.488C115.839 181.488 116.335 181.616 116.74 181.872C117.145 182.117 117.449 182.496 117.652 183.008C117.865 183.52 117.972 184.171 117.972 184.96V190H116.74V185.024C116.74 184.469 116.671 184.016 116.532 183.664C116.393 183.312 116.185 183.051 115.908 182.88C115.641 182.699 115.3 182.608 114.884 182.608C114.521 182.608 114.185 182.672 113.876 182.8C113.577 182.917 113.316 183.088 113.092 183.312C112.879 183.525 112.708 183.771 112.58 184.048C112.463 184.325 112.404 184.624 112.404 184.944V190H111.188V185.008C111.188 184.475 111.113 184.032 110.964 183.68C110.825 183.328 110.617 183.061 110.34 182.88C110.063 182.699 109.721 182.608 109.316 182.608C108.964 182.608 108.639 182.672 108.34 182.8C108.041 182.917 107.78 183.083 107.556 183.296C107.343 183.509 107.172 183.755 107.044 184.032C106.927 184.309 106.868 184.608 106.868 184.928V190H105.652ZM123.51 190.16C122.785 190.16 122.129 189.973 121.542 189.6C120.955 189.216 120.491 188.699 120.15 188.048C119.809 187.387 119.638 186.64 119.638 185.808C119.638 184.965 119.814 184.219 120.166 183.568C120.518 182.917 120.987 182.405 121.574 182.032C122.171 181.659 122.838 181.472 123.574 181.472C124.011 181.472 124.417 181.536 124.79 181.664C125.163 181.792 125.494 181.973 125.782 182.208C126.081 182.432 126.326 182.699 126.518 183.008C126.721 183.307 126.859 183.632 126.934 183.984L126.582 183.808L126.63 181.648H127.83V190H126.614V187.952L126.934 187.744C126.859 188.064 126.715 188.373 126.502 188.672C126.289 188.96 126.027 189.216 125.718 189.44C125.419 189.664 125.078 189.84 124.694 189.968C124.321 190.096 123.926 190.16 123.51 190.16ZM123.782 189.008C124.337 189.008 124.833 188.875 125.27 188.608C125.707 188.331 126.049 187.952 126.294 187.472C126.55 186.981 126.678 186.427 126.678 185.808C126.678 185.189 126.55 184.64 126.294 184.16C126.049 183.68 125.707 183.301 125.27 183.024C124.833 182.747 124.337 182.608 123.782 182.608C123.217 182.608 122.715 182.747 122.278 183.024C121.851 183.301 121.51 183.68 121.254 184.16C121.009 184.64 120.886 185.189 120.886 185.808C120.886 186.416 121.009 186.965 121.254 187.456C121.499 187.936 121.841 188.315 122.278 188.592C122.715 188.869 123.217 189.008 123.782 189.008ZM130.488 190V181.648H131.688V190H130.488ZM131.08 179.84C130.781 179.84 130.552 179.765 130.392 179.616C130.243 179.456 130.168 179.243 130.168 178.976C130.168 178.709 130.248 178.496 130.408 178.336C130.568 178.176 130.792 178.096 131.08 178.096C131.368 178.096 131.592 178.176 131.752 178.336C131.912 178.485 131.992 178.699 131.992 178.976C131.992 179.232 131.912 179.44 131.752 179.6C131.592 179.76 131.368 179.84 131.08 179.84ZM134.341 190V178.16H135.541V190H134.341Z" fill="#70737C"/>
<path d="M34.372 250V240.2H35.856L39.426 246.01L38.712 245.996L42.324 240.2H43.724V250H42.212V245.982C42.212 245.142 42.2307 244.386 42.268 243.714C42.3147 243.042 42.3893 242.375 42.492 241.712L42.688 242.23L39.482 247.186H38.558L35.45 242.286L35.604 241.712C35.7067 242.337 35.7767 242.981 35.814 243.644C35.8607 244.297 35.884 245.077 35.884 245.982V250H34.372ZM49.5376 250.14C48.7816 250.14 48.1096 249.981 47.5216 249.664C46.9429 249.337 46.4856 248.894 46.1496 248.334C45.8229 247.774 45.6596 247.13 45.6596 246.402C45.6596 245.823 45.7529 245.296 45.9396 244.82C46.1263 244.344 46.3829 243.933 46.7096 243.588C47.0456 243.233 47.4423 242.963 47.8996 242.776C48.3663 242.58 48.8703 242.482 49.4116 242.482C49.8876 242.482 50.3309 242.575 50.7416 242.762C51.1523 242.939 51.5069 243.187 51.8056 243.504C52.1136 243.821 52.3469 244.199 52.5056 244.638C52.6736 245.067 52.7529 245.539 52.7436 246.052L52.7296 246.668H46.7236L46.4016 245.52H51.4836L51.2736 245.758V245.422C51.2456 245.114 51.1429 244.839 50.9656 244.596C50.7883 244.353 50.5643 244.162 50.2936 244.022C50.0229 243.882 49.7289 243.812 49.4116 243.812C48.9076 243.812 48.4829 243.91 48.1376 244.106C47.7923 244.293 47.5309 244.573 47.3536 244.946C47.1763 245.31 47.0876 245.763 47.0876 246.304C47.0876 246.817 47.1949 247.265 47.4096 247.648C47.6243 248.021 47.9276 248.311 48.3196 248.516C48.7116 248.721 49.1643 248.824 49.6776 248.824C50.0416 248.824 50.3776 248.763 50.6856 248.642C51.0029 248.521 51.3436 248.301 51.7076 247.984L52.4356 249.006C52.2116 249.23 51.9363 249.426 51.6096 249.594C51.2923 249.762 50.9516 249.897 50.5876 250C50.2329 250.093 49.8829 250.14 49.5376 250.14ZM56.7607 250.14C56.1447 250.14 55.5894 250.033 55.0947 249.818C54.6001 249.603 54.1894 249.286 53.8627 248.866L54.8427 248.026C55.1227 248.353 55.4261 248.591 55.7527 248.74C56.0887 248.88 56.4667 248.95 56.8867 248.95C57.0547 248.95 57.2087 248.931 57.3487 248.894C57.4981 248.847 57.6241 248.782 57.7267 248.698C57.8387 248.614 57.9227 248.516 57.9787 248.404C58.0347 248.283 58.0627 248.152 58.0627 248.012C58.0627 247.769 57.9741 247.573 57.7967 247.424C57.7034 247.359 57.5541 247.289 57.3487 247.214C57.1527 247.13 56.8961 247.046 56.5787 246.962C56.0374 246.822 55.5941 246.663 55.2487 246.486C54.9034 246.309 54.6374 246.108 54.4507 245.884C54.3107 245.707 54.2081 245.515 54.1427 245.31C54.0774 245.095 54.0447 244.862 54.0447 244.61C54.0447 244.302 54.1101 244.022 54.2407 243.77C54.3807 243.509 54.5674 243.285 54.8007 243.098C55.0434 242.902 55.3234 242.753 55.6407 242.65C55.9674 242.547 56.3127 242.496 56.6767 242.496C57.0221 242.496 57.3627 242.543 57.6987 242.636C58.0441 242.729 58.3614 242.865 58.6507 243.042C58.9401 243.219 59.1827 243.429 59.3787 243.672L58.5527 244.582C58.3754 244.405 58.1794 244.251 57.9647 244.12C57.7594 243.98 57.5494 243.873 57.3347 243.798C57.1201 243.723 56.9241 243.686 56.7467 243.686C56.5507 243.686 56.3734 243.705 56.2147 243.742C56.0561 243.779 55.9207 243.835 55.8087 243.91C55.7061 243.985 55.6267 244.078 55.5707 244.19C55.5147 244.302 55.4867 244.428 55.4867 244.568C55.4961 244.689 55.5241 244.806 55.5707 244.918C55.6267 245.021 55.7014 245.109 55.7947 245.184C55.8974 245.259 56.0514 245.338 56.2567 245.422C56.4621 245.506 56.7234 245.585 57.0407 245.66C57.5074 245.781 57.8901 245.917 58.1887 246.066C58.4967 246.206 58.7394 246.369 58.9167 246.556C59.1034 246.733 59.2341 246.939 59.3087 247.172C59.3834 247.405 59.4207 247.667 59.4207 247.956C59.4207 248.376 59.2994 248.754 59.0567 249.09C58.8234 249.417 58.5061 249.673 58.1047 249.86C57.7034 250.047 57.2554 250.14 56.7607 250.14ZM63.46 250.14C62.844 250.14 62.2886 250.033 61.794 249.818C61.2993 249.603 60.8886 249.286 60.562 248.866L61.542 248.026C61.822 248.353 62.1253 248.591 62.452 248.74C62.788 248.88 63.166 248.95 63.586 248.95C63.754 248.95 63.908 248.931 64.048 248.894C64.1973 248.847 64.3233 248.782 64.426 248.698C64.538 248.614 64.622 248.516 64.678 248.404C64.734 248.283 64.762 248.152 64.762 248.012C64.762 247.769 64.6733 247.573 64.496 247.424C64.4026 247.359 64.2533 247.289 64.048 247.214C63.852 247.13 63.5953 247.046 63.278 246.962C62.7366 246.822 62.2933 246.663 61.948 246.486C61.6026 246.309 61.3366 246.108 61.15 245.884C61.01 245.707 60.9073 245.515 60.842 245.31C60.7766 245.095 60.744 244.862 60.744 244.61C60.744 244.302 60.8093 244.022 60.94 243.77C61.08 243.509 61.2666 243.285 61.5 243.098C61.7426 242.902 62.0226 242.753 62.34 242.65C62.6666 242.547 63.012 242.496 63.376 242.496C63.7213 242.496 64.062 242.543 64.398 242.636C64.7433 242.729 65.0606 242.865 65.35 243.042C65.6393 243.219 65.882 243.429 66.078 243.672L65.252 244.582C65.0746 244.405 64.8786 244.251 64.664 244.12C64.4586 243.98 64.2486 243.873 64.034 243.798C63.8193 243.723 63.6233 243.686 63.446 243.686C63.25 243.686 63.0726 243.705 62.914 243.742C62.7553 243.779 62.62 243.835 62.508 243.91C62.4053 243.985 62.326 244.078 62.27 244.19C62.214 244.302 62.186 244.428 62.186 244.568C62.1953 244.689 62.2233 244.806 62.27 244.918C62.326 245.021 62.4006 245.109 62.494 245.184C62.5966 245.259 62.7506 245.338 62.956 245.422C63.1613 245.506 63.4226 245.585 63.74 245.66C64.2066 245.781 64.5893 245.917 64.888 246.066C65.196 246.206 65.4386 246.369 65.616 246.556C65.8026 246.733 65.9333 246.939 66.008 247.172C66.0826 247.405 66.12 247.667 66.12 247.956C66.12 248.376 65.9986 248.754 65.756 249.09C65.5226 249.417 65.2053 249.673 64.804 249.86C64.4026 250.047 63.9546 250.14 63.46 250.14ZM70.5372 250.14C69.9305 250.14 69.3752 249.972 68.8712 249.636C68.3765 249.3 67.9798 248.843 67.6812 248.264C67.3825 247.685 67.2332 247.032 67.2332 246.304C67.2332 245.567 67.3825 244.913 67.6812 244.344C67.9892 243.765 68.3998 243.313 68.9132 242.986C69.4358 242.659 70.0192 242.496 70.6632 242.496C71.0458 242.496 71.3958 242.552 71.7132 242.664C72.0305 242.776 72.3058 242.935 72.5392 243.14C72.7818 243.336 72.9778 243.565 73.1272 243.826C73.2858 244.087 73.3838 244.367 73.4212 244.666L73.0992 244.554V242.65H74.5552V250H73.0992V248.25L73.4352 248.152C73.3792 248.404 73.2625 248.651 73.0852 248.894C72.9172 249.127 72.6978 249.337 72.4272 249.524C72.1658 249.711 71.8718 249.86 71.5452 249.972C71.2278 250.084 70.8918 250.14 70.5372 250.14ZM70.9152 248.81C71.3538 248.81 71.7412 248.703 72.0772 248.488C72.4132 248.273 72.6745 247.979 72.8612 247.606C73.0572 247.223 73.1552 246.789 73.1552 246.304C73.1552 245.828 73.0572 245.403 72.8612 245.03C72.6745 244.657 72.4132 244.363 72.0772 244.148C71.7412 243.933 71.3538 243.826 70.9152 243.826C70.4858 243.826 70.1032 243.933 69.7672 244.148C69.4405 244.363 69.1792 244.657 68.9832 245.03C68.7965 245.403 68.7032 245.828 68.7032 246.304C68.7032 246.789 68.7965 247.223 68.9832 247.606C69.1792 247.979 69.4405 248.273 69.7672 248.488C70.1032 248.703 70.4858 248.81 70.9152 248.81ZM79.8585 253.22C79.3359 253.22 78.8132 253.136 78.2905 252.968C77.7772 252.809 77.3619 252.599 77.0445 252.338L77.5765 251.218C77.7632 251.358 77.9825 251.479 78.2345 251.582C78.4865 251.694 78.7525 251.778 79.0325 251.834C79.3125 251.899 79.5879 251.932 79.8585 251.932C80.3719 251.932 80.8012 251.848 81.1465 251.68C81.4919 251.512 81.7532 251.265 81.9305 250.938C82.1079 250.611 82.1965 250.205 82.1965 249.72V248.306L82.3505 248.404C82.3039 248.693 82.1499 248.973 81.8885 249.244C81.6365 249.505 81.3192 249.72 80.9365 249.888C80.5539 250.056 80.1619 250.14 79.7605 250.14C79.0605 250.14 78.4352 249.977 77.8845 249.65C77.3432 249.314 76.9139 248.861 76.5965 248.292C76.2792 247.713 76.1205 247.055 76.1205 246.318C76.1205 245.581 76.2745 244.927 76.5825 244.358C76.8999 243.779 77.3292 243.327 77.8705 243C78.4212 242.664 79.0372 242.496 79.7185 242.496C79.9985 242.496 80.2692 242.533 80.5305 242.608C80.7919 242.673 81.0345 242.771 81.2585 242.902C81.4825 243.023 81.6832 243.159 81.8605 243.308C82.0379 243.457 82.1825 243.616 82.2945 243.784C82.4065 243.952 82.4765 244.111 82.5045 244.26L82.1965 244.372V242.65H83.6385V249.552C83.6385 250.14 83.5499 250.658 83.3725 251.106C83.2045 251.563 82.9572 251.946 82.6305 252.254C82.3039 252.571 81.9072 252.809 81.4405 252.968C80.9739 253.136 80.4465 253.22 79.8585 253.22ZM79.9145 248.81C80.3719 248.81 80.7779 248.703 81.1325 248.488C81.4872 248.273 81.7625 247.979 81.9585 247.606C82.1545 247.233 82.2525 246.803 82.2525 246.318C82.2525 245.833 82.1499 245.403 81.9445 245.03C81.7485 244.647 81.4732 244.349 81.1185 244.134C80.7732 243.919 80.3719 243.812 79.9145 243.812C79.4665 243.812 79.0652 243.924 78.7105 244.148C78.3652 244.363 78.0899 244.661 77.8845 245.044C77.6885 245.417 77.5905 245.842 77.5905 246.318C77.5905 246.794 77.6885 247.223 77.8845 247.606C78.0899 247.979 78.3652 248.273 78.7105 248.488C79.0652 248.703 79.4665 248.81 79.9145 248.81ZM89.0903 250.14C88.3343 250.14 87.6623 249.981 87.0743 249.664C86.4957 249.337 86.0383 248.894 85.7023 248.334C85.3757 247.774 85.2123 247.13 85.2123 246.402C85.2123 245.823 85.3057 245.296 85.4923 244.82C85.679 244.344 85.9357 243.933 86.2623 243.588C86.5983 243.233 86.995 242.963 87.4523 242.776C87.919 242.58 88.423 242.482 88.9643 242.482C89.4403 242.482 89.8837 242.575 90.2943 242.762C90.705 242.939 91.0597 243.187 91.3583 243.504C91.6663 243.821 91.8997 244.199 92.0583 244.638C92.2263 245.067 92.3057 245.539 92.2963 246.052L92.2823 246.668H86.2763L85.9543 245.52H91.0363L90.8263 245.758V245.422C90.7983 245.114 90.6957 244.839 90.5183 244.596C90.341 244.353 90.117 244.162 89.8463 244.022C89.5757 243.882 89.2817 243.812 88.9643 243.812C88.4603 243.812 88.0357 243.91 87.6903 244.106C87.345 244.293 87.0837 244.573 86.9063 244.946C86.729 245.31 86.6403 245.763 86.6403 246.304C86.6403 246.817 86.7477 247.265 86.9623 247.648C87.177 248.021 87.4803 248.311 87.8723 248.516C88.2643 248.721 88.717 248.824 89.2303 248.824C89.5943 248.824 89.9303 248.763 90.2383 248.642C90.5557 248.521 90.8963 248.301 91.2603 247.984L91.9883 249.006C91.7643 249.23 91.489 249.426 91.1623 249.594C90.845 249.762 90.5043 249.897 90.1403 250C89.7857 250.093 89.4357 250.14 89.0903 250.14Z" fill="#70737C"/>
<rect x="33.5" y="259.5" width="470" height="132" rx="3.5" stroke="#EFEFEF"/>
<path d="M61.704 293V287.416L61.816 288.2L57.288 281.8H58.808L62.52 287.112L62.184 287.08L65.592 281.8H67.032L62.696 288.376L62.936 287.288V293H61.704ZM70.8953 293.16C70.0633 293.16 69.3219 292.973 68.6713 292.6C68.0313 292.227 67.5246 291.709 67.1513 291.048C66.7886 290.387 66.6073 289.635 66.6073 288.792C66.6073 287.96 66.7886 287.219 67.1513 286.568C67.5246 285.917 68.0313 285.405 68.6713 285.032C69.3219 284.659 70.0633 284.472 70.8953 284.472C71.7166 284.472 72.4473 284.659 73.0873 285.032C73.7379 285.405 74.2446 285.917 74.6073 286.568C74.9806 287.219 75.1673 287.96 75.1673 288.792C75.1673 289.635 74.9806 290.387 74.6073 291.048C74.2446 291.709 73.7379 292.227 73.0873 292.6C72.4473 292.973 71.7166 293.16 70.8953 293.16ZM70.8953 292.024C71.4819 292.024 72.0046 291.885 72.4633 291.608C72.9219 291.32 73.2793 290.936 73.5353 290.456C73.7913 289.965 73.9193 289.411 73.9193 288.792C73.9193 288.173 73.7913 287.624 73.5353 287.144C73.2793 286.664 72.9219 286.291 72.4633 286.024C72.0046 285.747 71.4819 285.608 70.8953 285.608C70.3086 285.608 69.7806 285.747 69.3113 286.024C68.8526 286.291 68.4899 286.669 68.2233 287.16C67.9673 287.64 67.8446 288.184 67.8553 288.792C67.8446 289.411 67.9673 289.965 68.2233 290.456C68.4899 290.936 68.8526 291.32 69.3113 291.608C69.7806 291.885 70.3086 292.024 70.8953 292.024ZM79.878 293.16C79.238 293.16 78.694 293.032 78.246 292.776C77.8087 292.509 77.4727 292.125 77.238 291.624C77.014 291.123 76.902 290.499 76.902 289.752V284.648H78.118V289.512C78.118 290.077 78.1927 290.552 78.342 290.936C78.502 291.309 78.7367 291.592 79.046 291.784C79.366 291.976 79.7553 292.072 80.214 292.072C80.566 292.072 80.8913 292.013 81.19 291.896C81.4887 291.768 81.75 291.597 81.974 291.384C82.198 291.171 82.374 290.92 82.502 290.632C82.63 290.344 82.694 290.04 82.694 289.72V284.648H83.894V293H82.71L82.662 291.24L82.854 291.144C82.726 291.517 82.5127 291.859 82.214 292.168C81.9153 292.467 81.558 292.707 81.142 292.888C80.7367 293.069 80.3153 293.16 79.878 293.16ZM86.2305 293V284.648H87.4305L87.4625 286.872L87.3345 286.568C87.4518 286.195 87.6385 285.848 87.8945 285.528C88.1612 285.208 88.4758 284.952 88.8385 284.76C89.2012 284.568 89.6012 284.472 90.0385 284.472C90.2198 284.472 90.3905 284.488 90.5505 284.52C90.7105 284.541 90.8438 284.573 90.9505 284.616L90.6145 285.96C90.4758 285.896 90.3318 285.853 90.1825 285.832C90.0438 285.8 89.9105 285.784 89.7825 285.784C89.4198 285.784 89.0945 285.848 88.8065 285.976C88.5185 286.104 88.2732 286.285 88.0705 286.52C87.8678 286.744 87.7132 287.005 87.6065 287.304C87.4998 287.603 87.4465 287.923 87.4465 288.264V293H86.2305ZM96.6676 293V284.648H97.8676L97.8996 286.552L97.6596 286.632C97.745 286.312 97.8836 286.024 98.0756 285.768C98.2783 285.501 98.5183 285.272 98.7956 285.08C99.073 284.888 99.377 284.744 99.7076 284.648C100.038 284.541 100.385 284.488 100.748 284.488C101.185 284.488 101.574 284.563 101.916 284.712C102.268 284.851 102.561 285.096 102.796 285.448C103.041 285.789 103.228 286.243 103.356 286.808L103.068 286.664L103.18 286.392C103.286 286.147 103.441 285.912 103.644 285.688C103.857 285.453 104.097 285.245 104.364 285.064C104.641 284.883 104.94 284.744 105.26 284.648C105.59 284.541 105.926 284.488 106.268 284.488C106.854 284.488 107.35 284.616 107.756 284.872C108.161 285.117 108.465 285.496 108.668 286.008C108.881 286.52 108.988 287.171 108.988 287.96V293H107.756V288.024C107.756 287.469 107.686 287.016 107.548 286.664C107.409 286.312 107.201 286.051 106.924 285.88C106.657 285.699 106.316 285.608 105.9 285.608C105.537 285.608 105.201 285.672 104.892 285.8C104.593 285.917 104.332 286.088 104.108 286.312C103.894 286.525 103.724 286.771 103.596 287.048C103.478 287.325 103.42 287.624 103.42 287.944V293H102.204V288.008C102.204 287.475 102.129 287.032 101.98 286.68C101.841 286.328 101.633 286.061 101.356 285.88C101.078 285.699 100.737 285.608 100.332 285.608C99.9796 285.608 99.6543 285.672 99.3556 285.8C99.057 285.917 98.7956 286.083 98.5716 286.296C98.3583 286.509 98.1876 286.755 98.0596 287.032C97.9423 287.309 97.8836 287.608 97.8836 287.928V293H96.6676ZM114.942 293.16C114.11 293.16 113.368 292.979 112.718 292.616C112.078 292.253 111.576 291.747 111.214 291.096C110.851 290.445 110.67 289.699 110.67 288.856C110.67 288.205 110.771 287.619 110.974 287.096C111.176 286.563 111.459 286.099 111.822 285.704C112.195 285.309 112.638 285.005 113.15 284.792C113.662 284.568 114.216 284.456 114.814 284.456C115.379 284.456 115.891 284.557 116.35 284.76C116.819 284.963 117.219 285.245 117.55 285.608C117.891 285.96 118.147 286.381 118.318 286.872C118.488 287.363 118.563 287.901 118.542 288.488L118.526 289.048H111.566L111.39 288.04H117.614L117.326 288.312V287.928C117.304 287.544 117.192 287.176 116.99 286.824C116.787 286.461 116.499 286.168 116.126 285.944C115.763 285.72 115.326 285.608 114.814 285.608C114.216 285.608 113.699 285.731 113.262 285.976C112.824 286.211 112.488 286.563 112.254 287.032C112.019 287.501 111.902 288.083 111.902 288.776C111.902 289.437 112.03 290.013 112.286 290.504C112.542 290.984 112.904 291.357 113.374 291.624C113.854 291.891 114.43 292.024 115.102 292.024C115.496 292.024 115.886 291.96 116.27 291.832C116.664 291.693 117.096 291.427 117.566 291.032L118.19 291.896C117.944 292.141 117.651 292.36 117.31 292.552C116.968 292.733 116.595 292.883 116.19 293C115.784 293.107 115.368 293.16 114.942 293.16ZM122.982 293.16C122.267 293.16 121.627 293.027 121.062 292.76C120.497 292.493 120.049 292.141 119.718 291.704L120.566 290.968C120.875 291.341 121.238 291.624 121.654 291.816C122.081 292.008 122.555 292.104 123.078 292.104C123.345 292.104 123.585 292.077 123.798 292.024C124.011 291.96 124.198 291.869 124.358 291.752C124.518 291.635 124.641 291.496 124.726 291.336C124.811 291.176 124.854 291 124.854 290.808C124.854 290.456 124.699 290.163 124.39 289.928C124.251 289.832 124.054 289.736 123.798 289.64C123.542 289.533 123.233 289.432 122.87 289.336C122.273 289.165 121.777 288.995 121.382 288.824C120.987 288.643 120.678 288.435 120.454 288.2C120.294 288.008 120.171 287.8 120.086 287.576C120.011 287.352 119.974 287.107 119.974 286.84C119.974 286.499 120.043 286.184 120.182 285.896C120.331 285.608 120.534 285.357 120.79 285.144C121.057 284.92 121.366 284.755 121.718 284.648C122.081 284.531 122.47 284.472 122.886 284.472C123.281 284.472 123.67 284.525 124.054 284.632C124.438 284.739 124.795 284.893 125.126 285.096C125.457 285.299 125.739 285.539 125.974 285.816L125.238 286.616C125.035 286.403 124.811 286.211 124.566 286.04C124.321 285.869 124.059 285.736 123.782 285.64C123.515 285.544 123.238 285.496 122.95 285.496C122.694 285.496 122.454 285.528 122.23 285.592C122.017 285.656 121.83 285.747 121.67 285.864C121.521 285.971 121.403 286.104 121.318 286.264C121.243 286.424 121.206 286.6 121.206 286.792C121.206 286.952 121.238 287.096 121.302 287.224C121.366 287.352 121.457 287.464 121.574 287.56C121.723 287.677 121.931 287.789 122.198 287.896C122.475 287.992 122.817 288.093 123.222 288.2C123.691 288.328 124.086 288.461 124.406 288.6C124.737 288.728 125.009 288.883 125.222 289.064C125.51 289.277 125.713 289.523 125.83 289.8C125.958 290.077 126.022 290.392 126.022 290.744C126.022 291.213 125.889 291.629 125.622 291.992C125.366 292.355 125.009 292.643 124.55 292.856C124.091 293.059 123.569 293.16 122.982 293.16ZM130.638 293.16C129.924 293.16 129.284 293.027 128.718 292.76C128.153 292.493 127.705 292.141 127.374 291.704L128.222 290.968C128.532 291.341 128.894 291.624 129.31 291.816C129.737 292.008 130.212 292.104 130.734 292.104C131.001 292.104 131.241 292.077 131.454 292.024C131.668 291.96 131.854 291.869 132.014 291.752C132.174 291.635 132.297 291.496 132.382 291.336C132.468 291.176 132.51 291 132.51 290.808C132.51 290.456 132.356 290.163 132.046 289.928C131.908 289.832 131.71 289.736 131.454 289.64C131.198 289.533 130.889 289.432 130.526 289.336C129.929 289.165 129.433 288.995 129.038 288.824C128.644 288.643 128.334 288.435 128.11 288.2C127.95 288.008 127.828 287.8 127.742 287.576C127.668 287.352 127.63 287.107 127.63 286.84C127.63 286.499 127.7 286.184 127.838 285.896C127.988 285.608 128.19 285.357 128.446 285.144C128.713 284.92 129.022 284.755 129.374 284.648C129.737 284.531 130.126 284.472 130.542 284.472C130.937 284.472 131.326 284.525 131.71 284.632C132.094 284.739 132.452 284.893 132.782 285.096C133.113 285.299 133.396 285.539 133.63 285.816L132.894 286.616C132.692 286.403 132.468 286.211 132.222 286.04C131.977 285.869 131.716 285.736 131.438 285.64C131.172 285.544 130.894 285.496 130.606 285.496C130.35 285.496 130.11 285.528 129.886 285.592C129.673 285.656 129.486 285.747 129.326 285.864C129.177 285.971 129.06 286.104 128.974 286.264C128.9 286.424 128.862 286.6 128.862 286.792C128.862 286.952 128.894 287.096 128.958 287.224C129.022 287.352 129.113 287.464 129.23 287.56C129.38 287.677 129.588 287.789 129.854 287.896C130.132 287.992 130.473 288.093 130.878 288.2C131.348 288.328 131.742 288.461 132.062 288.6C132.393 288.728 132.665 288.883 132.878 289.064C133.166 289.277 133.369 289.523 133.486 289.8C133.614 290.077 133.678 290.392 133.678 290.744C133.678 291.213 133.545 291.629 133.278 291.992C133.022 292.355 132.665 292.643 132.206 292.856C131.748 293.059 131.225 293.16 130.638 293.16ZM138.823 293.16C138.097 293.16 137.441 292.973 136.855 292.6C136.268 292.216 135.804 291.699 135.463 291.048C135.121 290.387 134.951 289.64 134.951 288.808C134.951 287.965 135.127 287.219 135.479 286.568C135.831 285.917 136.3 285.405 136.887 285.032C137.484 284.659 138.151 284.472 138.887 284.472C139.324 284.472 139.729 284.536 140.103 284.664C140.476 284.792 140.807 284.973 141.095 285.208C141.393 285.432 141.639 285.699 141.831 286.008C142.033 286.307 142.172 286.632 142.247 286.984L141.895 286.808L141.943 284.648H143.143V293H141.927V290.952L142.247 290.744C142.172 291.064 142.028 291.373 141.815 291.672C141.601 291.96 141.34 292.216 141.031 292.44C140.732 292.664 140.391 292.84 140.007 292.968C139.633 293.096 139.239 293.16 138.823 293.16ZM139.095 292.008C139.649 292.008 140.145 291.875 140.583 291.608C141.02 291.331 141.361 290.952 141.607 290.472C141.863 289.981 141.991 289.427 141.991 288.808C141.991 288.189 141.863 287.64 141.607 287.16C141.361 286.68 141.02 286.301 140.583 286.024C140.145 285.747 139.649 285.608 139.095 285.608C138.529 285.608 138.028 285.747 137.591 286.024C137.164 286.301 136.823 286.68 136.567 287.16C136.321 287.64 136.199 288.189 136.199 288.808C136.199 289.416 136.321 289.965 136.567 290.456C136.812 290.936 137.153 291.315 137.591 291.592C138.028 291.869 138.529 292.008 139.095 292.008ZM149.081 296.68C148.462 296.68 147.875 296.584 147.321 296.392C146.766 296.2 146.307 295.96 145.945 295.672L146.424 294.664C146.638 294.835 146.883 294.984 147.161 295.112C147.449 295.251 147.758 295.357 148.089 295.432C148.419 295.517 148.755 295.56 149.097 295.56C149.715 295.56 150.238 295.443 150.665 295.208C151.102 294.984 151.433 294.648 151.657 294.2C151.891 293.752 152.009 293.197 152.009 292.536V290.936L152.201 290.888C152.105 291.293 151.897 291.672 151.577 292.024C151.257 292.365 150.867 292.643 150.409 292.856C149.95 293.059 149.465 293.16 148.953 293.16C148.174 293.16 147.475 292.973 146.857 292.6C146.249 292.227 145.769 291.715 145.417 291.064C145.065 290.403 144.889 289.656 144.889 288.824C144.889 287.981 145.065 287.235 145.417 286.584C145.779 285.923 146.265 285.405 146.873 285.032C147.481 284.659 148.163 284.472 148.921 284.472C149.251 284.472 149.571 284.515 149.881 284.6C150.19 284.675 150.473 284.787 150.729 284.936C150.995 285.085 151.235 285.256 151.449 285.448C151.662 285.64 151.838 285.848 151.977 286.072C152.126 286.296 152.233 286.525 152.297 286.76L151.961 286.712L152.009 284.648H153.209V292.488C153.209 293.16 153.113 293.752 152.921 294.264C152.729 294.787 152.446 295.224 152.073 295.576C151.71 295.939 151.273 296.211 150.761 296.392C150.259 296.584 149.699 296.68 149.081 296.68ZM149.097 292.008C149.662 292.008 150.163 291.875 150.601 291.608C151.049 291.331 151.401 290.952 151.657 290.472C151.913 289.992 152.041 289.437 152.041 288.808C152.041 288.189 151.913 287.64 151.657 287.16C151.411 286.68 151.065 286.301 150.617 286.024C150.169 285.747 149.662 285.608 149.097 285.608C148.521 285.608 148.009 285.747 147.561 286.024C147.123 286.301 146.777 286.68 146.521 287.16C146.265 287.64 146.137 288.189 146.137 288.808C146.137 289.416 146.259 289.965 146.505 290.456C146.761 290.936 147.107 291.315 147.545 291.592C147.993 291.869 148.51 292.008 149.097 292.008ZM159.223 293.16C158.391 293.16 157.65 292.979 156.999 292.616C156.359 292.253 155.858 291.747 155.495 291.096C155.132 290.445 154.951 289.699 154.951 288.856C154.951 288.205 155.052 287.619 155.255 287.096C155.458 286.563 155.74 286.099 156.103 285.704C156.476 285.309 156.919 285.005 157.431 284.792C157.943 284.568 158.498 284.456 159.095 284.456C159.66 284.456 160.172 284.557 160.631 284.76C161.1 284.963 161.5 285.245 161.831 285.608C162.172 285.96 162.428 286.381 162.599 286.872C162.77 287.363 162.844 287.901 162.823 288.488L162.807 289.048H155.847L155.671 288.04H161.895L161.607 288.312V287.928C161.586 287.544 161.474 287.176 161.271 286.824C161.068 286.461 160.78 286.168 160.407 285.944C160.044 285.72 159.607 285.608 159.095 285.608C158.498 285.608 157.98 285.731 157.543 285.976C157.106 286.211 156.77 286.563 156.535 287.032C156.3 287.501 156.183 288.083 156.183 288.776C156.183 289.437 156.311 290.013 156.567 290.504C156.823 290.984 157.186 291.357 157.655 291.624C158.135 291.891 158.711 292.024 159.383 292.024C159.778 292.024 160.167 291.96 160.551 291.832C160.946 291.693 161.378 291.427 161.847 291.032L162.471 291.896C162.226 292.141 161.932 292.36 161.591 292.552C161.25 292.733 160.876 292.883 160.471 293C160.066 293.107 159.65 293.16 159.223 293.16Z" fill="#70737C"/>
<rect x="33" y="406" width="160" height="51" rx="8" fill="#359740"/>
<path d="M69.056 438.16C68.4053 438.16 67.808 438.08 67.264 437.92C66.72 437.749 66.2293 437.499 65.792 437.168C65.3547 436.837 64.9653 436.437 64.624 435.968L65.984 434.432C66.5067 435.157 67.0187 435.659 67.52 435.936C68.0213 436.213 68.5867 436.352 69.216 436.352C69.5787 436.352 69.9093 436.299 70.208 436.192C70.5067 436.075 70.7413 435.92 70.912 435.728C71.0827 435.525 71.168 435.296 71.168 435.04C71.168 434.859 71.1307 434.693 71.056 434.544C70.992 434.384 70.8907 434.245 70.752 434.128C70.6133 434 70.4427 433.883 70.24 433.776C70.0373 433.669 69.808 433.579 69.552 433.504C69.296 433.429 69.0133 433.36 68.704 433.296C68.1173 433.179 67.6053 433.024 67.168 432.832C66.7307 432.629 66.3627 432.384 66.064 432.096C65.7653 431.797 65.5467 431.467 65.408 431.104C65.2693 430.731 65.2 430.309 65.2 429.84C65.2 429.371 65.3013 428.939 65.504 428.544C65.7173 428.149 66.0053 427.808 66.368 427.52C66.7307 427.232 67.152 427.008 67.632 426.848C68.112 426.688 68.6293 426.608 69.184 426.608C69.8133 426.608 70.3733 426.683 70.864 426.832C71.3653 426.981 71.8027 427.205 72.176 427.504C72.56 427.792 72.8747 428.144 73.12 428.56L71.744 429.92C71.5307 429.589 71.2907 429.317 71.024 429.104C70.7573 428.88 70.4693 428.715 70.16 428.608C69.8507 428.491 69.5253 428.432 69.184 428.432C68.8 428.432 68.464 428.485 68.176 428.592C67.8987 428.699 67.68 428.853 67.52 429.056C67.36 429.248 67.28 429.483 67.28 429.76C67.28 429.973 67.328 430.165 67.424 430.336C67.52 430.496 67.6533 430.64 67.824 430.768C68.0053 430.896 68.2347 431.008 68.512 431.104C68.7893 431.2 69.104 431.285 69.456 431.36C70.0427 431.477 70.5707 431.637 71.04 431.84C71.5093 432.032 71.9093 432.267 72.24 432.544C72.5707 432.811 72.8213 433.12 72.992 433.472C73.1627 433.813 73.248 434.197 73.248 434.624C73.248 435.36 73.072 435.995 72.72 436.528C72.3787 437.051 71.8933 437.456 71.264 437.744C70.6347 438.021 69.8987 438.16 69.056 438.16ZM78.5752 438.16C77.6899 438.16 76.9059 437.973 76.2232 437.6C75.5512 437.227 75.0232 436.72 74.6392 436.08C74.2659 435.429 74.0792 434.688 74.0792 433.856C74.0792 433.195 74.1859 432.592 74.3992 432.048C74.6126 431.504 74.9059 431.035 75.2792 430.64C75.6632 430.235 76.1166 429.925 76.6392 429.712C77.1726 429.488 77.7539 429.376 78.3832 429.376C78.9379 429.376 79.4552 429.483 79.9352 429.696C80.4152 429.909 80.8313 430.203 81.1832 430.576C81.5353 430.939 81.8019 431.376 81.9832 431.888C82.1752 432.389 82.2659 432.939 82.2552 433.536L82.2393 434.224H75.4072L75.0392 432.88H80.5912L80.3352 433.152V432.8C80.3032 432.469 80.1966 432.181 80.0152 431.936C79.8339 431.68 79.5992 431.483 79.3112 431.344C79.0339 431.195 78.7246 431.12 78.3832 431.12C77.8606 431.12 77.4179 431.221 77.0552 431.424C76.7032 431.627 76.4366 431.92 76.2552 432.304C76.0739 432.677 75.9832 433.147 75.9832 433.712C75.9832 434.256 76.0952 434.731 76.3192 435.136C76.5539 435.541 76.8792 435.856 77.2952 436.08C77.7219 436.293 78.2179 436.4 78.7832 436.4C79.1779 436.4 79.5406 436.336 79.8712 436.208C80.2019 436.08 80.5592 435.851 80.9432 435.52L81.9192 436.88C81.6313 437.147 81.3006 437.376 80.9272 437.568C80.5646 437.749 80.1806 437.893 79.7752 438C79.3699 438.107 78.9699 438.16 78.5752 438.16ZM83.4382 438V429.568H85.3582L85.3902 431.296L85.0222 431.488C85.1289 431.104 85.3369 430.757 85.6462 430.448C85.9556 430.128 86.3236 429.872 86.7502 429.68C87.1769 429.488 87.6142 429.392 88.0622 429.392C88.7022 429.392 89.2356 429.52 89.6622 429.776C90.0996 430.032 90.4249 430.416 90.6382 430.928C90.8622 431.44 90.9742 432.08 90.9742 432.848V438H89.0062V432.992C89.0062 432.565 88.9476 432.213 88.8302 431.936C88.7129 431.648 88.5316 431.44 88.2862 431.312C88.0409 431.173 87.7422 431.109 87.3902 431.12C87.1022 431.12 86.8356 431.168 86.5902 431.264C86.3556 431.349 86.1476 431.477 85.9662 431.648C85.7956 431.808 85.6569 431.995 85.5502 432.208C85.4542 432.421 85.4062 432.656 85.4062 432.912V438H84.4302C84.2382 438 84.0569 438 83.8862 438C83.7262 438 83.5769 438 83.4382 438ZM96.0202 438.16C95.2736 438.16 94.6016 437.973 94.0042 437.6C93.4176 437.216 92.9482 436.699 92.5962 436.048C92.2549 435.387 92.0842 434.629 92.0842 433.776C92.0842 432.933 92.2549 432.181 92.5962 431.52C92.9376 430.859 93.4016 430.341 93.9882 429.968C94.5856 429.584 95.2576 429.392 96.0043 429.392C96.4096 429.392 96.7989 429.456 97.1722 429.584C97.5562 429.712 97.8976 429.888 98.1962 430.112C98.4949 430.325 98.7296 430.565 98.9002 430.832C99.0816 431.099 99.1829 431.376 99.2042 431.664L98.6762 431.728V426.16H100.644V438H98.7403L98.6923 436.016L99.0763 436.048C99.0656 436.315 98.9696 436.571 98.7882 436.816C98.6176 437.061 98.3936 437.285 98.1163 437.488C97.8389 437.691 97.5136 437.856 97.1402 437.984C96.7776 438.101 96.4042 438.16 96.0202 438.16ZM96.4043 436.496C96.8629 436.496 97.2682 436.379 97.6202 436.144C97.9722 435.909 98.2443 435.589 98.4363 435.184C98.6389 434.779 98.7403 434.309 98.7403 433.776C98.7403 433.253 98.6389 432.789 98.4363 432.384C98.2443 431.968 97.9722 431.648 97.6202 431.424C97.2682 431.189 96.8629 431.072 96.4043 431.072C95.9456 431.072 95.5402 431.189 95.1882 431.424C94.8362 431.648 94.5589 431.968 94.3562 432.384C94.1642 432.789 94.0682 433.253 94.0682 433.776C94.0682 434.309 94.1642 434.779 94.3562 435.184C94.5589 435.589 94.8362 435.909 95.1882 436.144C95.5402 436.379 95.9456 436.496 96.4043 436.496ZM106.461 438V429.568H108.397L108.429 432.256L108.157 431.648C108.275 431.221 108.477 430.837 108.765 430.496C109.053 430.155 109.384 429.888 109.757 429.696C110.141 429.493 110.541 429.392 110.957 429.392C111.139 429.392 111.309 429.408 111.469 429.44C111.64 429.472 111.779 429.509 111.885 429.552L111.357 431.712C111.24 431.648 111.096 431.595 110.925 431.552C110.755 431.509 110.584 431.488 110.413 431.488C110.147 431.488 109.891 431.541 109.645 431.648C109.411 431.744 109.203 431.883 109.021 432.064C108.84 432.245 108.696 432.459 108.589 432.704C108.493 432.939 108.445 433.205 108.445 433.504V438H106.461ZM116.228 438.16C115.343 438.16 114.559 437.973 113.876 437.6C113.204 437.227 112.676 436.72 112.292 436.08C111.919 435.429 111.732 434.688 111.732 433.856C111.732 433.195 111.839 432.592 112.052 432.048C112.266 431.504 112.559 431.035 112.932 430.64C113.316 430.235 113.77 429.925 114.292 429.712C114.826 429.488 115.407 429.376 116.036 429.376C116.591 429.376 117.108 429.483 117.588 429.696C118.068 429.909 118.484 430.203 118.836 430.576C119.188 430.939 119.455 431.376 119.636 431.888C119.828 432.389 119.919 432.939 119.908 433.536L119.892 434.224H113.06L112.692 432.88H118.244L117.988 433.152V432.8C117.956 432.469 117.85 432.181 117.668 431.936C117.487 431.68 117.252 431.483 116.964 431.344C116.687 431.195 116.378 431.12 116.036 431.12C115.514 431.12 115.071 431.221 114.708 431.424C114.356 431.627 114.09 431.92 113.908 432.304C113.727 432.677 113.636 433.147 113.636 433.712C113.636 434.256 113.748 434.731 113.972 435.136C114.207 435.541 114.532 435.856 114.948 436.08C115.375 436.293 115.871 436.4 116.436 436.4C116.831 436.4 117.194 436.336 117.524 436.208C117.855 436.08 118.212 435.851 118.596 435.52L119.572 436.88C119.284 437.147 118.954 437.376 118.58 437.568C118.218 437.749 117.834 437.893 117.428 438C117.023 438.107 116.623 438.16 116.228 438.16ZM127.059 441.52V435.984L127.459 436.032C127.449 436.288 127.353 436.544 127.171 436.8C127.001 437.045 126.771 437.275 126.483 437.488C126.206 437.691 125.891 437.856 125.539 437.984C125.198 438.101 124.841 438.16 124.467 438.16C123.721 438.16 123.049 437.973 122.451 437.6C121.865 437.216 121.401 436.693 121.059 436.032C120.718 435.371 120.547 434.619 120.547 433.776C120.547 432.923 120.713 432.171 121.043 431.52C121.385 430.859 121.843 430.341 122.419 429.968C123.006 429.584 123.673 429.392 124.419 429.392C124.825 429.392 125.214 429.456 125.587 429.584C125.961 429.712 126.297 429.883 126.595 430.096C126.894 430.309 127.129 430.549 127.299 430.816C127.481 431.083 127.577 431.355 127.587 431.632L127.075 431.68L127.107 429.552H129.027V441.52H127.059ZM124.787 436.416C125.246 436.416 125.651 436.304 126.003 436.08C126.355 435.856 126.627 435.547 126.819 435.152C127.022 434.757 127.123 434.299 127.123 433.776C127.123 433.253 127.022 432.795 126.819 432.4C126.627 431.995 126.355 431.68 126.003 431.456C125.651 431.232 125.246 431.12 124.787 431.12C124.329 431.12 123.923 431.237 123.571 431.472C123.219 431.696 122.942 432.011 122.739 432.416C122.547 432.811 122.451 433.264 122.451 433.776C122.451 434.288 122.547 434.747 122.739 435.152C122.942 435.547 123.219 435.856 123.571 436.08C123.923 436.304 124.329 436.416 124.787 436.416ZM133.694 438.16C133.086 438.16 132.558 438.027 132.11 437.76C131.662 437.483 131.32 437.093 131.086 436.592C130.851 436.08 130.734 435.472 130.734 434.768V429.568H132.702V434.352C132.702 434.8 132.771 435.184 132.91 435.504C133.048 435.813 133.251 436.053 133.518 436.224C133.784 436.395 134.104 436.48 134.478 436.48C134.755 436.48 135.006 436.437 135.23 436.352C135.464 436.256 135.667 436.128 135.838 435.968C136.008 435.797 136.142 435.6 136.238 435.376C136.334 435.141 136.382 434.891 136.382 434.624V429.568H138.35V438H136.43L136.398 436.24L136.75 436.048C136.622 436.453 136.403 436.816 136.094 437.136C135.795 437.445 135.438 437.696 135.022 437.888C134.606 438.069 134.163 438.16 133.694 438.16ZM144.048 438.16C143.163 438.16 142.379 437.973 141.696 437.6C141.024 437.227 140.496 436.72 140.112 436.08C139.739 435.429 139.552 434.688 139.552 433.856C139.552 433.195 139.659 432.592 139.872 432.048C140.086 431.504 140.379 431.035 140.752 430.64C141.136 430.235 141.59 429.925 142.112 429.712C142.646 429.488 143.227 429.376 143.856 429.376C144.411 429.376 144.928 429.483 145.408 429.696C145.888 429.909 146.304 430.203 146.656 430.576C147.008 430.939 147.275 431.376 147.456 431.888C147.648 432.389 147.739 432.939 147.728 433.536L147.712 434.224H140.88L140.512 432.88H146.064L145.808 433.152V432.8C145.776 432.469 145.67 432.181 145.488 431.936C145.307 431.68 145.072 431.483 144.784 431.344C144.507 431.195 144.198 431.12 143.856 431.12C143.334 431.12 142.891 431.221 142.528 431.424C142.176 431.627 141.91 431.92 141.728 432.304C141.547 432.677 141.456 433.147 141.456 433.712C141.456 434.256 141.568 434.731 141.792 435.136C142.027 435.541 142.352 435.856 142.768 436.08C143.195 436.293 143.691 436.4 144.256 436.4C144.651 436.4 145.014 436.336 145.344 436.208C145.675 436.08 146.032 435.851 146.416 435.52L147.392 436.88C147.104 437.147 146.774 437.376 146.4 437.568C146.038 437.749 145.654 437.893 145.248 438C144.843 438.107 144.443 438.16 144.048 438.16ZM151.727 438.16C150.981 438.16 150.309 438.037 149.711 437.792C149.125 437.536 148.645 437.173 148.271 436.704L149.551 435.6C149.871 435.963 150.229 436.224 150.623 436.384C151.018 436.544 151.434 436.624 151.871 436.624C152.053 436.624 152.213 436.603 152.351 436.56C152.501 436.517 152.629 436.453 152.735 436.368C152.842 436.283 152.922 436.187 152.975 436.08C153.039 435.963 153.071 435.835 153.071 435.696C153.071 435.44 152.975 435.237 152.783 435.088C152.677 435.013 152.506 434.933 152.271 434.848C152.047 434.763 151.754 434.677 151.391 434.592C150.815 434.443 150.335 434.272 149.951 434.08C149.567 433.877 149.269 433.653 149.055 433.408C148.874 433.205 148.735 432.976 148.639 432.72C148.554 432.464 148.511 432.187 148.511 431.888C148.511 431.515 148.591 431.179 148.751 430.88C148.922 430.571 149.151 430.304 149.439 430.08C149.727 429.856 150.063 429.685 150.447 429.568C150.831 429.451 151.231 429.392 151.647 429.392C152.074 429.392 152.485 429.445 152.879 429.552C153.285 429.659 153.658 429.813 153.999 430.016C154.351 430.208 154.65 430.443 154.895 430.72L153.807 431.92C153.605 431.728 153.381 431.557 153.135 431.408C152.901 431.259 152.661 431.141 152.415 431.056C152.17 430.96 151.941 430.912 151.727 430.912C151.525 430.912 151.343 430.933 151.183 430.976C151.023 431.008 150.89 431.061 150.783 431.136C150.677 431.211 150.591 431.307 150.527 431.424C150.474 431.531 150.447 431.659 150.447 431.808C150.458 431.936 150.49 432.059 150.543 432.176C150.607 432.283 150.693 432.373 150.799 432.448C150.917 432.523 151.093 432.608 151.327 432.704C151.562 432.8 151.866 432.891 152.239 432.976C152.762 433.115 153.199 433.269 153.551 433.44C153.903 433.611 154.181 433.808 154.383 434.032C154.586 434.224 154.73 434.448 154.815 434.704C154.901 434.96 154.943 435.243 154.943 435.552C154.943 436.053 154.799 436.501 154.511 436.896C154.234 437.291 153.85 437.6 153.359 437.824C152.879 438.048 152.335 438.16 151.727 438.16ZM157.029 438V427.424H158.997V438H157.029ZM155.365 431.392V429.568H160.837V431.392H155.365Z" fill="white"/>
<path d="M214.372 425V415.2H218.46C219.085 415.2 219.613 415.293 220.042 415.48C220.471 415.667 220.793 415.947 221.008 416.32C221.232 416.684 221.344 417.132 221.344 417.664C221.344 418.196 221.195 418.649 220.896 419.022C220.607 419.395 220.201 419.652 219.678 419.792V419.512C220.117 419.605 220.499 419.773 220.826 420.016C221.153 420.249 221.405 420.543 221.582 420.898C221.769 421.253 221.862 421.659 221.862 422.116C221.862 422.583 221.787 422.998 221.638 423.362C221.498 423.717 221.283 424.015 220.994 424.258C220.714 424.501 220.373 424.687 219.972 424.818C219.571 424.939 219.113 425 218.6 425H214.372ZM215.884 423.544H218.516C218.899 423.544 219.221 423.488 219.482 423.376C219.753 423.264 219.958 423.101 220.098 422.886C220.247 422.662 220.322 422.396 220.322 422.088C220.322 421.799 220.243 421.551 220.084 421.346C219.935 421.141 219.72 420.987 219.44 420.884C219.16 420.772 218.829 420.716 218.446 420.716H215.884V423.544ZM215.884 419.26H218.376C218.656 419.26 218.903 419.204 219.118 419.092C219.342 418.98 219.515 418.826 219.636 418.63C219.767 418.434 219.832 418.21 219.832 417.958C219.832 417.538 219.692 417.216 219.412 416.992C219.132 416.768 218.731 416.656 218.208 416.656H215.884V419.26ZM224.769 428.22L226.253 424.79L226.267 425.938L222.599 417.65H224.279L226.575 423.054C226.622 423.147 226.678 423.292 226.743 423.488C226.809 423.675 226.865 423.861 226.911 424.048L226.547 424.132C226.622 423.936 226.692 423.74 226.757 423.544C226.832 423.348 226.902 423.152 226.967 422.956L228.885 417.65H230.593L227.569 425L226.323 428.22H224.769ZM238.046 425.14C237.43 425.14 236.875 425.033 236.38 424.818C235.885 424.603 235.475 424.286 235.148 423.866L236.128 423.026C236.408 423.353 236.711 423.591 237.038 423.74C237.374 423.88 237.752 423.95 238.172 423.95C238.34 423.95 238.494 423.931 238.634 423.894C238.783 423.847 238.909 423.782 239.012 423.698C239.124 423.614 239.208 423.516 239.264 423.404C239.32 423.283 239.348 423.152 239.348 423.012C239.348 422.769 239.259 422.573 239.082 422.424C238.989 422.359 238.839 422.289 238.634 422.214C238.438 422.13 238.181 422.046 237.864 421.962C237.323 421.822 236.879 421.663 236.534 421.486C236.189 421.309 235.923 421.108 235.736 420.884C235.596 420.707 235.493 420.515 235.428 420.31C235.363 420.095 235.33 419.862 235.33 419.61C235.33 419.302 235.395 419.022 235.526 418.77C235.666 418.509 235.853 418.285 236.086 418.098C236.329 417.902 236.609 417.753 236.926 417.65C237.253 417.547 237.598 417.496 237.962 417.496C238.307 417.496 238.648 417.543 238.984 417.636C239.329 417.729 239.647 417.865 239.936 418.042C240.225 418.219 240.468 418.429 240.664 418.672L239.838 419.582C239.661 419.405 239.465 419.251 239.25 419.12C239.045 418.98 238.835 418.873 238.62 418.798C238.405 418.723 238.209 418.686 238.032 418.686C237.836 418.686 237.659 418.705 237.5 418.742C237.341 418.779 237.206 418.835 237.094 418.91C236.991 418.985 236.912 419.078 236.856 419.19C236.8 419.302 236.772 419.428 236.772 419.568C236.781 419.689 236.809 419.806 236.856 419.918C236.912 420.021 236.987 420.109 237.08 420.184C237.183 420.259 237.337 420.338 237.542 420.422C237.747 420.506 238.009 420.585 238.326 420.66C238.793 420.781 239.175 420.917 239.474 421.066C239.782 421.206 240.025 421.369 240.202 421.556C240.389 421.733 240.519 421.939 240.594 422.172C240.669 422.405 240.706 422.667 240.706 422.956C240.706 423.376 240.585 423.754 240.342 424.09C240.109 424.417 239.791 424.673 239.39 424.86C238.989 425.047 238.541 425.14 238.046 425.14ZM245.725 425.14C244.969 425.14 244.297 424.981 243.709 424.664C243.13 424.337 242.673 423.894 242.337 423.334C242.01 422.774 241.847 422.13 241.847 421.402C241.847 420.823 241.94 420.296 242.127 419.82C242.314 419.344 242.57 418.933 242.897 418.588C243.233 418.233 243.63 417.963 244.087 417.776C244.554 417.58 245.058 417.482 245.599 417.482C246.075 417.482 246.518 417.575 246.929 417.762C247.34 417.939 247.694 418.187 247.993 418.504C248.301 418.821 248.534 419.199 248.693 419.638C248.861 420.067 248.94 420.539 248.931 421.052L248.917 421.668H242.911L242.589 420.52H247.671L247.461 420.758V420.422C247.433 420.114 247.33 419.839 247.153 419.596C246.976 419.353 246.752 419.162 246.481 419.022C246.21 418.882 245.916 418.812 245.599 418.812C245.095 418.812 244.67 418.91 244.325 419.106C243.98 419.293 243.718 419.573 243.541 419.946C243.364 420.31 243.275 420.763 243.275 421.304C243.275 421.817 243.382 422.265 243.597 422.648C243.812 423.021 244.115 423.311 244.507 423.516C244.899 423.721 245.352 423.824 245.865 423.824C246.229 423.824 246.565 423.763 246.873 423.642C247.19 423.521 247.531 423.301 247.895 422.984L248.623 424.006C248.399 424.23 248.124 424.426 247.797 424.594C247.48 424.762 247.139 424.897 246.775 425C246.42 425.093 246.07 425.14 245.725 425.14ZM250.498 425V417.65H251.94V419.162L251.688 419.33C251.782 419.003 251.964 418.705 252.234 418.434C252.505 418.154 252.827 417.93 253.2 417.762C253.574 417.585 253.956 417.496 254.348 417.496C254.908 417.496 255.375 417.608 255.748 417.832C256.122 418.047 256.402 418.378 256.588 418.826C256.775 419.274 256.868 419.839 256.868 420.52V425H255.426V420.618C255.426 420.198 255.37 419.853 255.258 419.582C255.146 419.302 254.974 419.101 254.74 418.98C254.507 418.849 254.218 418.793 253.872 418.812C253.592 418.812 253.336 418.859 253.102 418.952C252.869 419.036 252.664 419.157 252.486 419.316C252.318 419.475 252.183 419.661 252.08 419.876C251.987 420.081 251.94 420.305 251.94 420.548V425H251.226C251.105 425 250.984 425 250.862 425C250.741 425 250.62 425 250.498 425ZM261.89 425.14C261.218 425.14 260.616 424.977 260.084 424.65C259.562 424.314 259.146 423.861 258.838 423.292C258.53 422.713 258.376 422.055 258.376 421.318C258.376 420.581 258.526 419.927 258.824 419.358C259.132 418.779 259.548 418.327 260.07 418C260.593 417.664 261.186 417.496 261.848 417.496C262.212 417.496 262.562 417.557 262.898 417.678C263.244 417.79 263.552 417.949 263.822 418.154C264.093 418.35 264.303 418.569 264.452 418.812C264.611 419.045 264.69 419.283 264.69 419.526L264.27 419.554V414.64H265.712V425H264.27V423.25H264.55C264.55 423.474 264.476 423.698 264.326 423.922C264.177 424.137 263.976 424.337 263.724 424.524C263.482 424.711 263.197 424.86 262.87 424.972C262.553 425.084 262.226 425.14 261.89 425.14ZM262.086 423.894C262.525 423.894 262.912 423.782 263.248 423.558C263.584 423.334 263.846 423.031 264.032 422.648C264.228 422.256 264.326 421.813 264.326 421.318C264.326 420.823 264.228 420.385 264.032 420.002C263.846 419.61 263.584 419.302 263.248 419.078C262.912 418.854 262.525 418.742 262.086 418.742C261.648 418.742 261.26 418.854 260.924 419.078C260.588 419.302 260.322 419.61 260.126 420.002C259.94 420.385 259.846 420.823 259.846 421.318C259.846 421.813 259.94 422.256 260.126 422.648C260.322 423.031 260.588 423.334 260.924 423.558C261.26 423.782 261.648 423.894 262.086 423.894ZM267.935 425V417.65H269.377V425H267.935ZM268.635 416.026C268.327 416.026 268.089 415.947 267.921 415.788C267.753 415.629 267.669 415.405 267.669 415.116C267.669 414.845 267.753 414.626 267.921 414.458C268.099 414.29 268.337 414.206 268.635 414.206C268.943 414.206 269.181 414.285 269.349 414.444C269.517 414.603 269.601 414.827 269.601 415.116C269.601 415.387 269.513 415.606 269.335 415.774C269.167 415.942 268.934 416.026 268.635 416.026ZM271.594 425V417.65H273.036V419.162L272.784 419.33C272.877 419.003 273.059 418.705 273.33 418.434C273.601 418.154 273.923 417.93 274.296 417.762C274.669 417.585 275.052 417.496 275.444 417.496C276.004 417.496 276.471 417.608 276.844 417.832C277.217 418.047 277.497 418.378 277.684 418.826C277.871 419.274 277.964 419.839 277.964 420.52V425H276.522V420.618C276.522 420.198 276.466 419.853 276.354 419.582C276.242 419.302 276.069 419.101 275.836 418.98C275.603 418.849 275.313 418.793 274.968 418.812C274.688 418.812 274.431 418.859 274.198 418.952C273.965 419.036 273.759 419.157 273.582 419.316C273.414 419.475 273.279 419.661 273.176 419.876C273.083 420.081 273.036 420.305 273.036 420.548V425H272.322C272.201 425 272.079 425 271.958 425C271.837 425 271.715 425 271.594 425ZM283.21 428.22C282.687 428.22 282.165 428.136 281.642 427.968C281.129 427.809 280.713 427.599 280.396 427.338L280.928 426.218C281.115 426.358 281.334 426.479 281.586 426.582C281.838 426.694 282.104 426.778 282.384 426.834C282.664 426.899 282.939 426.932 283.21 426.932C283.723 426.932 284.153 426.848 284.498 426.68C284.843 426.512 285.105 426.265 285.282 425.938C285.459 425.611 285.548 425.205 285.548 424.72V423.306L285.702 423.404C285.655 423.693 285.501 423.973 285.24 424.244C284.988 424.505 284.671 424.72 284.288 424.888C283.905 425.056 283.513 425.14 283.112 425.14C282.412 425.14 281.787 424.977 281.236 424.65C280.695 424.314 280.265 423.861 279.948 423.292C279.631 422.713 279.472 422.055 279.472 421.318C279.472 420.581 279.626 419.927 279.934 419.358C280.251 418.779 280.681 418.327 281.222 418C281.773 417.664 282.389 417.496 283.07 417.496C283.35 417.496 283.621 417.533 283.882 417.608C284.143 417.673 284.386 417.771 284.61 417.902C284.834 418.023 285.035 418.159 285.212 418.308C285.389 418.457 285.534 418.616 285.646 418.784C285.758 418.952 285.828 419.111 285.856 419.26L285.548 419.372V417.65H286.99V424.552C286.99 425.14 286.901 425.658 286.724 426.106C286.556 426.563 286.309 426.946 285.982 427.254C285.655 427.571 285.259 427.809 284.792 427.968C284.325 428.136 283.798 428.22 283.21 428.22ZM283.266 423.81C283.723 423.81 284.129 423.703 284.484 423.488C284.839 423.273 285.114 422.979 285.31 422.606C285.506 422.233 285.604 421.803 285.604 421.318C285.604 420.833 285.501 420.403 285.296 420.03C285.1 419.647 284.825 419.349 284.47 419.134C284.125 418.919 283.723 418.812 283.266 418.812C282.818 418.812 282.417 418.924 282.062 419.148C281.717 419.363 281.441 419.661 281.236 420.044C281.04 420.417 280.942 420.842 280.942 421.318C280.942 421.794 281.04 422.223 281.236 422.606C281.441 422.979 281.717 423.273 282.062 423.488C282.417 423.703 282.818 423.81 283.266 423.81ZM292.936 425V417.65H294.392V419.96L294.252 419.4C294.354 419.045 294.527 418.723 294.77 418.434C295.022 418.145 295.306 417.916 295.624 417.748C295.95 417.58 296.286 417.496 296.632 417.496C296.79 417.496 296.94 417.51 297.08 417.538C297.229 417.566 297.346 417.599 297.43 417.636L297.052 419.204C296.94 419.157 296.814 419.12 296.674 419.092C296.543 419.055 296.412 419.036 296.282 419.036C296.03 419.036 295.787 419.087 295.554 419.19C295.33 419.283 295.129 419.419 294.952 419.596C294.784 419.764 294.648 419.965 294.546 420.198C294.443 420.422 294.392 420.669 294.392 420.94V425H292.936ZM301.698 425.14C300.942 425.14 300.27 424.981 299.682 424.664C299.103 424.337 298.646 423.894 298.31 423.334C297.983 422.774 297.82 422.13 297.82 421.402C297.82 420.823 297.913 420.296 298.1 419.82C298.286 419.344 298.543 418.933 298.87 418.588C299.206 418.233 299.602 417.963 300.06 417.776C300.526 417.58 301.03 417.482 301.572 417.482C302.048 417.482 302.491 417.575 302.902 417.762C303.312 417.939 303.667 418.187 303.966 418.504C304.274 418.821 304.507 419.199 304.666 419.638C304.834 420.067 304.913 420.539 304.904 421.052L304.89 421.668H298.884L298.562 420.52H303.644L303.434 420.758V420.422C303.406 420.114 303.303 419.839 303.126 419.596C302.948 419.353 302.724 419.162 302.454 419.022C302.183 418.882 301.889 418.812 301.572 418.812C301.068 418.812 300.643 418.91 300.298 419.106C299.952 419.293 299.691 419.573 299.514 419.946C299.336 420.31 299.248 420.763 299.248 421.304C299.248 421.817 299.355 422.265 299.57 422.648C299.784 423.021 300.088 423.311 300.48 423.516C300.872 423.721 301.324 423.824 301.838 423.824C302.202 423.824 302.538 423.763 302.846 423.642C303.163 423.521 303.504 423.301 303.868 422.984L304.596 424.006C304.372 424.23 304.096 424.426 303.77 424.594C303.452 424.762 303.112 424.897 302.748 425C302.393 425.093 302.043 425.14 301.698 425.14ZM311.833 428.08V423.25H312.113C312.113 423.474 312.038 423.698 311.889 423.922C311.74 424.137 311.539 424.337 311.287 424.524C311.035 424.711 310.755 424.86 310.447 424.972C310.139 425.084 309.822 425.14 309.495 425.14C308.832 425.14 308.24 424.977 307.717 424.65C307.194 424.314 306.779 423.861 306.471 423.292C306.172 422.713 306.023 422.055 306.023 421.318C306.023 420.581 306.172 419.927 306.471 419.358C306.77 418.779 307.176 418.327 307.689 418C308.212 417.664 308.8 417.496 309.453 417.496C309.817 417.496 310.162 417.557 310.489 417.678C310.825 417.799 311.124 417.958 311.385 418.154C311.656 418.35 311.866 418.569 312.015 418.812C312.174 419.045 312.253 419.283 312.253 419.526L311.833 419.554V417.636H313.275V428.08H311.833ZM309.649 423.81C310.088 423.81 310.475 423.703 310.811 423.488C311.147 423.273 311.408 422.979 311.595 422.606C311.791 422.233 311.889 421.803 311.889 421.318C311.889 420.833 311.791 420.403 311.595 420.03C311.408 419.647 311.147 419.349 310.811 419.134C310.475 418.919 310.088 418.812 309.649 418.812C309.21 418.812 308.823 418.924 308.487 419.148C308.151 419.363 307.885 419.661 307.689 420.044C307.502 420.417 307.409 420.842 307.409 421.318C307.409 421.794 307.502 422.223 307.689 422.606C307.885 422.979 308.151 423.273 308.487 423.488C308.823 423.703 309.21 423.81 309.649 423.81ZM317.865 425.14C317.343 425.14 316.885 425.019 316.493 424.776C316.111 424.533 315.812 424.193 315.597 423.754C315.392 423.315 315.289 422.793 315.289 422.186V417.65H316.731V421.794C316.731 422.223 316.797 422.597 316.927 422.914C317.067 423.222 317.263 423.46 317.515 423.628C317.777 423.796 318.089 423.88 318.453 423.88C318.724 423.88 318.971 423.838 319.195 423.754C319.419 423.661 319.611 423.535 319.769 423.376C319.937 423.217 320.068 423.026 320.161 422.802C320.255 422.578 320.301 422.335 320.301 422.074V417.65H321.743V425H320.301V423.46L320.553 423.292C320.441 423.637 320.25 423.95 319.979 424.23C319.718 424.51 319.405 424.734 319.041 424.902C318.677 425.061 318.285 425.14 317.865 425.14ZM327.196 425.14C326.44 425.14 325.768 424.981 325.18 424.664C324.601 424.337 324.144 423.894 323.808 423.334C323.481 422.774 323.318 422.13 323.318 421.402C323.318 420.823 323.411 420.296 323.598 419.82C323.784 419.344 324.041 418.933 324.368 418.588C324.704 418.233 325.1 417.963 325.558 417.776C326.024 417.58 326.528 417.482 327.07 417.482C327.546 417.482 327.989 417.575 328.4 417.762C328.81 417.939 329.165 418.187 329.464 418.504C329.772 418.821 330.005 419.199 330.164 419.638C330.332 420.067 330.411 420.539 330.402 421.052L330.388 421.668H324.382L324.06 420.52H329.142L328.932 420.758V420.422C328.904 420.114 328.801 419.839 328.624 419.596C328.446 419.353 328.222 419.162 327.952 419.022C327.681 418.882 327.387 418.812 327.07 418.812C326.566 418.812 326.141 418.91 325.796 419.106C325.45 419.293 325.189 419.573 325.012 419.946C324.834 420.31 324.746 420.763 324.746 421.304C324.746 421.817 324.853 422.265 325.068 422.648C325.282 423.021 325.586 423.311 325.978 423.516C326.37 423.721 326.822 423.824 327.336 423.824C327.7 423.824 328.036 423.763 328.344 423.642C328.661 423.521 329.002 423.301 329.366 422.984L330.094 424.006C329.87 424.23 329.594 424.426 329.268 424.594C328.95 424.762 328.61 424.897 328.246 425C327.891 425.093 327.541 425.14 327.196 425.14ZM334.419 425.14C333.803 425.14 333.248 425.033 332.753 424.818C332.258 424.603 331.848 424.286 331.521 423.866L332.501 423.026C332.781 423.353 333.084 423.591 333.411 423.74C333.747 423.88 334.125 423.95 334.545 423.95C334.713 423.95 334.867 423.931 335.007 423.894C335.156 423.847 335.282 423.782 335.385 423.698C335.497 423.614 335.581 423.516 335.637 423.404C335.693 423.283 335.721 423.152 335.721 423.012C335.721 422.769 335.632 422.573 335.455 422.424C335.362 422.359 335.212 422.289 335.007 422.214C334.811 422.13 334.554 422.046 334.237 421.962C333.696 421.822 333.252 421.663 332.907 421.486C332.562 421.309 332.296 421.108 332.109 420.884C331.969 420.707 331.866 420.515 331.801 420.31C331.736 420.095 331.703 419.862 331.703 419.61C331.703 419.302 331.768 419.022 331.899 418.77C332.039 418.509 332.226 418.285 332.459 418.098C332.702 417.902 332.982 417.753 333.299 417.65C333.626 417.547 333.971 417.496 334.335 417.496C334.68 417.496 335.021 417.543 335.357 417.636C335.702 417.729 336.02 417.865 336.309 418.042C336.598 418.219 336.841 418.429 337.037 418.672L336.211 419.582C336.034 419.405 335.838 419.251 335.623 419.12C335.418 418.98 335.208 418.873 334.993 418.798C334.778 418.723 334.582 418.686 334.405 418.686C334.209 418.686 334.032 418.705 333.873 418.742C333.714 418.779 333.579 418.835 333.467 418.91C333.364 418.985 333.285 419.078 333.229 419.19C333.173 419.302 333.145 419.428 333.145 419.568C333.154 419.689 333.182 419.806 333.229 419.918C333.285 420.021 333.36 420.109 333.453 420.184C333.556 420.259 333.71 420.338 333.915 420.422C334.12 420.506 334.382 420.585 334.699 420.66C335.166 420.781 335.548 420.917 335.847 421.066C336.155 421.206 336.398 421.369 336.575 421.556C336.762 421.733 336.892 421.939 336.967 422.172C337.042 422.405 337.079 422.667 337.079 422.956C337.079 423.376 336.958 423.754 336.715 424.09C336.482 424.417 336.164 424.673 335.763 424.86C335.362 425.047 334.914 425.14 334.419 425.14ZM339.578 425V415.774H341.02V425H339.578ZM338.052 419.05V417.65H342.728V419.05H338.052ZM349.197 428.22L350.681 424.79L350.695 425.938L347.027 417.65H348.707L351.003 423.054C351.05 423.147 351.106 423.292 351.171 423.488C351.236 423.675 351.292 423.861 351.339 424.048L350.975 424.132C351.05 423.936 351.12 423.74 351.185 423.544C351.26 423.348 351.33 423.152 351.395 422.956L353.313 417.65H355.021L351.997 425L350.751 428.22H349.197ZM359.267 425.14C358.548 425.14 357.904 424.977 357.335 424.65C356.775 424.314 356.332 423.861 356.005 423.292C355.678 422.713 355.515 422.055 355.515 421.318C355.515 420.581 355.678 419.927 356.005 419.358C356.332 418.779 356.775 418.327 357.335 418C357.904 417.664 358.548 417.496 359.267 417.496C359.976 417.496 360.611 417.664 361.171 418C361.74 418.327 362.188 418.779 362.515 419.358C362.842 419.927 363.005 420.581 363.005 421.318C363.005 422.055 362.842 422.713 362.515 423.292C362.188 423.861 361.74 424.314 361.171 424.65C360.611 424.977 359.976 425.14 359.267 425.14ZM359.267 423.824C359.706 423.824 360.098 423.717 360.443 423.502C360.788 423.278 361.059 422.979 361.255 422.606C361.451 422.223 361.544 421.794 361.535 421.318C361.544 420.833 361.451 420.403 361.255 420.03C361.059 419.647 360.788 419.349 360.443 419.134C360.098 418.919 359.706 418.812 359.267 418.812C358.828 418.812 358.432 418.924 358.077 419.148C357.732 419.363 357.461 419.661 357.265 420.044C357.069 420.417 356.976 420.842 356.985 421.318C356.976 421.794 357.069 422.223 357.265 422.606C357.461 422.979 357.732 423.278 358.077 423.502C358.432 423.717 358.828 423.824 359.267 423.824ZM367.152 425.14C366.63 425.14 366.172 425.019 365.78 424.776C365.398 424.533 365.099 424.193 364.884 423.754C364.679 423.315 364.576 422.793 364.576 422.186V417.65H366.018V421.794C366.018 422.223 366.084 422.597 366.214 422.914C366.354 423.222 366.55 423.46 366.802 423.628C367.064 423.796 367.376 423.88 367.74 423.88C368.011 423.88 368.258 423.838 368.482 423.754C368.706 423.661 368.898 423.535 369.056 423.376C369.224 423.217 369.355 423.026 369.448 422.802C369.542 422.578 369.588 422.335 369.588 422.074V417.65H371.03V425H369.588V423.46L369.84 423.292C369.728 423.637 369.537 423.95 369.266 424.23C369.005 424.51 368.692 424.734 368.328 424.902C367.964 425.061 367.572 425.14 367.152 425.14ZM379.805 425.14C379.198 425.14 378.643 424.972 378.139 424.636C377.644 424.3 377.247 423.843 376.949 423.264C376.65 422.685 376.501 422.032 376.501 421.304C376.501 420.567 376.65 419.913 376.949 419.344C377.257 418.765 377.667 418.313 378.181 417.986C378.703 417.659 379.287 417.496 379.931 417.496C380.313 417.496 380.663 417.552 380.981 417.664C381.298 417.776 381.573 417.935 381.807 418.14C382.049 418.336 382.245 418.565 382.395 418.826C382.553 419.087 382.651 419.367 382.689 419.666L382.367 419.554V417.65H383.823V425H382.367V423.25L382.703 423.152C382.647 423.404 382.53 423.651 382.353 423.894C382.185 424.127 381.965 424.337 381.695 424.524C381.433 424.711 381.139 424.86 380.813 424.972C380.495 425.084 380.159 425.14 379.805 425.14ZM380.183 423.81C380.621 423.81 381.009 423.703 381.345 423.488C381.681 423.273 381.942 422.979 382.129 422.606C382.325 422.223 382.423 421.789 382.423 421.304C382.423 420.828 382.325 420.403 382.129 420.03C381.942 419.657 381.681 419.363 381.345 419.148C381.009 418.933 380.621 418.826 380.183 418.826C379.753 418.826 379.371 418.933 379.035 419.148C378.708 419.363 378.447 419.657 378.251 420.03C378.064 420.403 377.971 420.828 377.971 421.304C377.971 421.789 378.064 422.223 378.251 422.606C378.447 422.979 378.708 423.273 379.035 423.488C379.371 423.703 379.753 423.81 380.183 423.81ZM389.126 428.22C388.603 428.22 388.081 428.136 387.558 427.968C387.045 427.809 386.629 427.599 386.312 427.338L386.844 426.218C387.031 426.358 387.25 426.479 387.502 426.582C387.754 426.694 388.02 426.778 388.3 426.834C388.58 426.899 388.855 426.932 389.126 426.932C389.639 426.932 390.069 426.848 390.414 426.68C390.759 426.512 391.021 426.265 391.198 425.938C391.375 425.611 391.464 425.205 391.464 424.72V423.306L391.618 423.404C391.571 423.693 391.417 423.973 391.156 424.244C390.904 424.505 390.587 424.72 390.204 424.888C389.821 425.056 389.429 425.14 389.028 425.14C388.328 425.14 387.703 424.977 387.152 424.65C386.611 424.314 386.181 423.861 385.864 423.292C385.547 422.713 385.388 422.055 385.388 421.318C385.388 420.581 385.542 419.927 385.85 419.358C386.167 418.779 386.597 418.327 387.138 418C387.689 417.664 388.305 417.496 388.986 417.496C389.266 417.496 389.537 417.533 389.798 417.608C390.059 417.673 390.302 417.771 390.526 417.902C390.75 418.023 390.951 418.159 391.128 418.308C391.305 418.457 391.45 418.616 391.562 418.784C391.674 418.952 391.744 419.111 391.772 419.26L391.464 419.372V417.65H392.906V424.552C392.906 425.14 392.817 425.658 392.64 426.106C392.472 426.563 392.225 426.946 391.898 427.254C391.571 427.571 391.175 427.809 390.708 427.968C390.241 428.136 389.714 428.22 389.126 428.22ZM389.182 423.81C389.639 423.81 390.045 423.703 390.4 423.488C390.755 423.273 391.03 422.979 391.226 422.606C391.422 422.233 391.52 421.803 391.52 421.318C391.52 420.833 391.417 420.403 391.212 420.03C391.016 419.647 390.741 419.349 390.386 419.134C390.041 418.919 389.639 418.812 389.182 418.812C388.734 418.812 388.333 418.924 387.978 419.148C387.633 419.363 387.357 419.661 387.152 420.044C386.956 420.417 386.858 420.842 386.858 421.318C386.858 421.794 386.956 422.223 387.152 422.606C387.357 422.979 387.633 423.273 387.978 423.488C388.333 423.703 388.734 423.81 389.182 423.81ZM394.928 425V417.65H396.384V419.96L396.244 419.4C396.347 419.045 396.519 418.723 396.762 418.434C397.014 418.145 397.299 417.916 397.616 417.748C397.943 417.58 398.279 417.496 398.624 417.496C398.783 417.496 398.932 417.51 399.072 417.538C399.221 417.566 399.338 417.599 399.422 417.636L399.044 419.204C398.932 419.157 398.806 419.12 398.666 419.092C398.535 419.055 398.405 419.036 398.274 419.036C398.022 419.036 397.779 419.087 397.546 419.19C397.322 419.283 397.121 419.419 396.944 419.596C396.776 419.764 396.641 419.965 396.538 420.198C396.435 420.422 396.384 420.669 396.384 420.94V425H394.928ZM403.69 425.14C402.934 425.14 402.262 424.981 401.674 424.664C401.095 424.337 400.638 423.894 400.302 423.334C399.975 422.774 399.812 422.13 399.812 421.402C399.812 420.823 399.905 420.296 400.092 419.82C400.279 419.344 400.535 418.933 400.862 418.588C401.198 418.233 401.595 417.963 402.052 417.776C402.519 417.58 403.023 417.482 403.564 417.482C404.04 417.482 404.483 417.575 404.894 417.762C405.305 417.939 405.659 418.187 405.958 418.504C406.266 418.821 406.499 419.199 406.658 419.638C406.826 420.067 406.905 420.539 406.896 421.052L406.882 421.668H400.876L400.554 420.52H405.636L405.426 420.758V420.422C405.398 420.114 405.295 419.839 405.118 419.596C404.941 419.353 404.717 419.162 404.446 419.022C404.175 418.882 403.881 418.812 403.564 418.812C403.06 418.812 402.635 418.91 402.29 419.106C401.945 419.293 401.683 419.573 401.506 419.946C401.329 420.31 401.24 420.763 401.24 421.304C401.24 421.817 401.347 422.265 401.562 422.648C401.777 423.021 402.08 423.311 402.472 423.516C402.864 423.721 403.317 423.824 403.83 423.824C404.194 423.824 404.53 423.763 404.838 423.642C405.155 423.521 405.496 423.301 405.86 422.984L406.588 424.006C406.364 424.23 406.089 424.426 405.762 424.594C405.445 424.762 405.104 424.897 404.74 425C404.385 425.093 404.035 425.14 403.69 425.14ZM411.893 425.14C411.137 425.14 410.465 424.981 409.877 424.664C409.298 424.337 408.841 423.894 408.505 423.334C408.178 422.774 408.015 422.13 408.015 421.402C408.015 420.823 408.108 420.296 408.295 419.82C408.482 419.344 408.738 418.933 409.065 418.588C409.401 418.233 409.798 417.963 410.255 417.776C410.722 417.58 411.226 417.482 411.767 417.482C412.243 417.482 412.686 417.575 413.097 417.762C413.508 417.939 413.862 418.187 414.161 418.504C414.469 418.821 414.702 419.199 414.861 419.638C415.029 420.067 415.108 420.539 415.099 421.052L415.085 421.668H409.079L408.757 420.52H413.839L413.629 420.758V420.422C413.601 420.114 413.498 419.839 413.321 419.596C413.144 419.353 412.92 419.162 412.649 419.022C412.378 418.882 412.084 418.812 411.767 418.812C411.263 418.812 410.838 418.91 410.493 419.106C410.148 419.293 409.886 419.573 409.709 419.946C409.532 420.31 409.443 420.763 409.443 421.304C409.443 421.817 409.55 422.265 409.765 422.648C409.98 423.021 410.283 423.311 410.675 423.516C411.067 423.721 411.52 423.824 412.033 423.824C412.397 423.824 412.733 423.763 413.041 423.642C413.358 423.521 413.699 423.301 414.063 422.984L414.791 424.006C414.567 424.23 414.292 424.426 413.965 424.594C413.648 424.762 413.307 424.897 412.943 425C412.588 425.093 412.238 425.14 411.893 425.14ZM421.5 425V415.774H422.942V425H421.5ZM419.974 419.05V417.65H424.65V419.05H419.974ZM429.199 425.14C428.48 425.14 427.836 424.977 427.267 424.65C426.707 424.314 426.263 423.861 425.937 423.292C425.61 422.713 425.447 422.055 425.447 421.318C425.447 420.581 425.61 419.927 425.937 419.358C426.263 418.779 426.707 418.327 427.267 418C427.836 417.664 428.48 417.496 429.199 417.496C429.908 417.496 430.543 417.664 431.103 418C431.672 418.327 432.12 418.779 432.447 419.358C432.773 419.927 432.937 420.581 432.937 421.318C432.937 422.055 432.773 422.713 432.447 423.292C432.12 423.861 431.672 424.314 431.103 424.65C430.543 424.977 429.908 425.14 429.199 425.14ZM429.199 423.824C429.637 423.824 430.029 423.717 430.375 423.502C430.72 423.278 430.991 422.979 431.187 422.606C431.383 422.223 431.476 421.794 431.467 421.318C431.476 420.833 431.383 420.403 431.187 420.03C430.991 419.647 430.72 419.349 430.375 419.134C430.029 418.919 429.637 418.812 429.199 418.812C428.76 418.812 428.363 418.924 428.009 419.148C427.663 419.363 427.393 419.661 427.197 420.044C427.001 420.417 426.907 420.842 426.917 421.318C426.907 421.794 427.001 422.223 427.197 422.606C427.393 422.979 427.663 423.278 428.009 423.502C428.363 423.717 428.76 423.824 429.199 423.824ZM217.312 450.14C216.593 450.14 215.949 449.977 215.38 449.65C214.82 449.314 214.377 448.861 214.05 448.292C213.723 447.713 213.56 447.055 213.56 446.318C213.56 445.581 213.723 444.927 214.05 444.358C214.377 443.779 214.82 443.327 215.38 443C215.949 442.664 216.593 442.496 217.312 442.496C218.021 442.496 218.656 442.664 219.216 443C219.785 443.327 220.233 443.779 220.56 444.358C220.887 444.927 221.05 445.581 221.05 446.318C221.05 447.055 220.887 447.713 220.56 448.292C220.233 448.861 219.785 449.314 219.216 449.65C218.656 449.977 218.021 450.14 217.312 450.14ZM217.312 448.824C217.751 448.824 218.143 448.717 218.488 448.502C218.833 448.278 219.104 447.979 219.3 447.606C219.496 447.223 219.589 446.794 219.58 446.318C219.589 445.833 219.496 445.403 219.3 445.03C219.104 444.647 218.833 444.349 218.488 444.134C218.143 443.919 217.751 443.812 217.312 443.812C216.873 443.812 216.477 443.924 216.122 444.148C215.777 444.363 215.506 444.661 215.31 445.044C215.114 445.417 215.021 445.842 215.03 446.318C215.021 446.794 215.114 447.223 215.31 447.606C215.506 447.979 215.777 448.278 216.122 448.502C216.477 448.717 216.873 448.824 217.312 448.824ZM225.197 450.14C224.675 450.14 224.217 450.019 223.825 449.776C223.443 449.533 223.144 449.193 222.929 448.754C222.724 448.315 222.621 447.793 222.621 447.186V442.65H224.063V446.794C224.063 447.223 224.129 447.597 224.259 447.914C224.399 448.222 224.595 448.46 224.847 448.628C225.109 448.796 225.421 448.88 225.785 448.88C226.056 448.88 226.303 448.838 226.527 448.754C226.751 448.661 226.943 448.535 227.101 448.376C227.269 448.217 227.4 448.026 227.493 447.802C227.587 447.578 227.633 447.335 227.633 447.074V442.65H229.075V450H227.633V448.46L227.885 448.292C227.773 448.637 227.582 448.95 227.311 449.23C227.05 449.51 226.737 449.734 226.373 449.902C226.009 450.061 225.617 450.14 225.197 450.14ZM232.008 450V440.774H233.45V450H232.008ZM230.482 444.05V442.65H235.158V444.05H230.482ZM240.759 450V440.2H244.749C245.281 440.2 245.761 440.335 246.191 440.606C246.629 440.867 246.979 441.227 247.241 441.684C247.502 442.141 247.633 442.65 247.633 443.21C247.633 443.77 247.502 444.279 247.241 444.736C246.979 445.193 246.629 445.562 246.191 445.842C245.761 446.113 245.281 446.248 244.749 446.248H242.271V450H240.759ZM242.271 444.792H244.721C244.973 444.792 245.201 444.722 245.407 444.582C245.612 444.433 245.775 444.241 245.897 444.008C246.027 443.765 246.093 443.499 246.093 443.21C246.093 442.921 246.027 442.659 245.897 442.426C245.775 442.193 245.612 442.006 245.407 441.866C245.201 441.726 244.973 441.656 244.721 441.656H242.271V444.792ZM249.506 450V442.65H250.948V450H249.506ZM250.206 441.026C249.898 441.026 249.66 440.947 249.492 440.788C249.324 440.629 249.24 440.405 249.24 440.116C249.24 439.845 249.324 439.626 249.492 439.458C249.669 439.29 249.907 439.206 250.206 439.206C250.514 439.206 250.752 439.285 250.92 439.444C251.088 439.603 251.172 439.827 251.172 440.116C251.172 440.387 251.083 440.606 250.906 440.774C250.738 440.942 250.504 441.026 250.206 441.026ZM255.572 450L252.464 442.65H254.018L256.258 448.152L255.992 448.278L258.386 442.65H259.87L256.608 450H255.572ZM263.813 450.14C263.206 450.14 262.651 449.972 262.147 449.636C261.652 449.3 261.255 448.843 260.957 448.264C260.658 447.685 260.509 447.032 260.509 446.304C260.509 445.567 260.658 444.913 260.957 444.344C261.265 443.765 261.675 443.313 262.189 442.986C262.711 442.659 263.295 442.496 263.939 442.496C264.321 442.496 264.671 442.552 264.989 442.664C265.306 442.776 265.581 442.935 265.815 443.14C266.057 443.336 266.253 443.565 266.403 443.826C266.561 444.087 266.659 444.367 266.697 444.666L266.375 444.554V442.65H267.831V450H266.375V448.25L266.711 448.152C266.655 448.404 266.538 448.651 266.361 448.894C266.193 449.127 265.973 449.337 265.703 449.524C265.441 449.711 265.147 449.86 264.821 449.972C264.503 450.084 264.167 450.14 263.813 450.14ZM264.191 448.81C264.629 448.81 265.017 448.703 265.353 448.488C265.689 448.273 265.95 447.979 266.137 447.606C266.333 447.223 266.431 446.789 266.431 446.304C266.431 445.828 266.333 445.403 266.137 445.03C265.95 444.657 265.689 444.363 265.353 444.148C265.017 443.933 264.629 443.826 264.191 443.826C263.761 443.826 263.379 443.933 263.043 444.148C262.716 444.363 262.455 444.657 262.259 445.03C262.072 445.403 261.979 445.828 261.979 446.304C261.979 446.789 262.072 447.223 262.259 447.606C262.455 447.979 262.716 448.273 263.043 448.488C263.379 448.703 263.761 448.81 264.191 448.81ZM272.966 450.14C272.285 450.14 271.673 449.972 271.132 449.636C270.6 449.3 270.175 448.843 269.858 448.264C269.55 447.685 269.396 447.037 269.396 446.318C269.396 445.599 269.55 444.951 269.858 444.372C270.175 443.793 270.6 443.336 271.132 443C271.673 442.664 272.285 442.496 272.966 442.496C273.619 442.496 274.212 442.631 274.744 442.902C275.285 443.163 275.696 443.523 275.976 443.98L275.178 444.96C275.029 444.745 274.837 444.549 274.604 444.372C274.371 444.195 274.123 444.055 273.862 443.952C273.601 443.849 273.349 443.798 273.106 443.798C272.658 443.798 272.257 443.91 271.902 444.134C271.557 444.349 271.281 444.647 271.076 445.03C270.871 445.413 270.768 445.842 270.768 446.318C270.768 446.794 270.875 447.223 271.09 447.606C271.305 447.979 271.589 448.278 271.944 448.502C272.299 448.726 272.691 448.838 273.12 448.838C273.372 448.838 273.615 448.796 273.848 448.712C274.091 448.628 274.324 448.502 274.548 448.334C274.772 448.166 274.982 447.961 275.178 447.718L275.976 448.698C275.677 449.118 275.248 449.463 274.688 449.734C274.137 450.005 273.563 450.14 272.966 450.14ZM278.363 453.22L279.847 449.79L279.861 450.938L276.193 442.65H277.873L280.169 448.054C280.216 448.147 280.272 448.292 280.337 448.488C280.402 448.675 280.458 448.861 280.505 449.048L280.141 449.132C280.216 448.936 280.286 448.74 280.351 448.544C280.426 448.348 280.496 448.152 280.561 447.956L282.479 442.65H284.187L281.163 450L279.917 453.22H278.363ZM291.884 450L290.61 448.642L290.386 448.39L287.964 445.688C287.731 445.427 287.507 445.161 287.292 444.89C287.077 444.61 286.886 444.335 286.718 444.064C286.559 443.793 286.429 443.532 286.326 443.28C286.233 443.019 286.186 442.776 286.186 442.552C286.186 442.076 286.307 441.651 286.55 441.278C286.802 440.895 287.143 440.597 287.572 440.382C288.011 440.167 288.515 440.06 289.084 440.06C289.504 440.06 289.896 440.139 290.26 440.298C290.624 440.447 290.937 440.662 291.198 440.942C291.469 441.213 291.665 441.53 291.786 441.894L290.694 442.594C290.517 442.165 290.297 441.852 290.036 441.656C289.784 441.46 289.467 441.362 289.084 441.362C288.795 441.362 288.552 441.409 288.356 441.502C288.16 441.586 288.011 441.712 287.908 441.88C287.805 442.048 287.754 442.258 287.754 442.51C287.754 442.715 287.81 442.944 287.922 443.196C288.043 443.439 288.193 443.686 288.37 443.938C288.547 444.19 288.729 444.423 288.916 444.638C289.103 444.853 289.266 445.039 289.406 445.198L291.352 447.368L291.758 447.816L293.76 450H291.884ZM288.118 450.14C287.455 450.14 286.853 450 286.312 449.72C285.771 449.431 285.337 449.053 285.01 448.586C284.693 448.11 284.534 447.592 284.534 447.032C284.534 446.295 284.735 445.655 285.136 445.114C285.547 444.573 286.144 444.157 286.928 443.868L287.824 444.946C287.227 445.077 286.783 445.296 286.494 445.604C286.205 445.903 286.06 446.309 286.06 446.822C286.06 447.214 286.153 447.559 286.34 447.858C286.527 448.157 286.793 448.39 287.138 448.558C287.493 448.726 287.913 448.81 288.398 448.81C288.818 448.81 289.201 448.731 289.546 448.572C289.901 448.404 290.218 448.171 290.498 447.872C290.778 447.573 291.007 447.214 291.184 446.794C291.371 446.374 291.506 445.907 291.59 445.394H292.878C292.803 445.963 292.668 446.491 292.472 446.976C292.285 447.461 292.047 447.9 291.758 448.292C291.478 448.684 291.151 449.02 290.778 449.3C290.414 449.571 290.008 449.781 289.56 449.93C289.112 450.07 288.631 450.14 288.118 450.14ZM295.556 450V440.2H299.546C300.078 440.2 300.558 440.335 300.988 440.606C301.426 440.867 301.776 441.227 302.038 441.684C302.299 442.141 302.43 442.65 302.43 443.21C302.43 443.77 302.299 444.279 302.038 444.736C301.776 445.193 301.426 445.562 300.988 445.842C300.558 446.113 300.078 446.248 299.546 446.248H297.068V450H295.556ZM297.068 444.792H299.518C299.77 444.792 299.998 444.722 300.204 444.582C300.409 444.433 300.572 444.241 300.694 444.008C300.824 443.765 300.89 443.499 300.89 443.21C300.89 442.921 300.824 442.659 300.694 442.426C300.572 442.193 300.409 442.006 300.204 441.866C299.998 441.726 299.77 441.656 299.518 441.656H297.068V444.792ZM307.232 450.14C306.513 450.14 305.869 449.977 305.3 449.65C304.74 449.314 304.297 448.861 303.97 448.292C303.643 447.713 303.48 447.055 303.48 446.318C303.48 445.581 303.643 444.927 303.97 444.358C304.297 443.779 304.74 443.327 305.3 443C305.869 442.664 306.513 442.496 307.232 442.496C307.941 442.496 308.576 442.664 309.136 443C309.705 443.327 310.153 443.779 310.48 444.358C310.807 444.927 310.97 445.581 310.97 446.318C310.97 447.055 310.807 447.713 310.48 448.292C310.153 448.861 309.705 449.314 309.136 449.65C308.576 449.977 307.941 450.14 307.232 450.14ZM307.232 448.824C307.671 448.824 308.063 448.717 308.408 448.502C308.753 448.278 309.024 447.979 309.22 447.606C309.416 447.223 309.509 446.794 309.5 446.318C309.509 445.833 309.416 445.403 309.22 445.03C309.024 444.647 308.753 444.349 308.408 444.134C308.063 443.919 307.671 443.812 307.232 443.812C306.793 443.812 306.397 443.924 306.042 444.148C305.697 444.363 305.426 444.661 305.23 445.044C305.034 445.417 304.941 445.842 304.95 446.318C304.941 446.794 305.034 447.223 305.23 447.606C305.426 447.979 305.697 448.278 306.042 448.502C306.397 448.717 306.793 448.824 307.232 448.824ZM312.569 450V439.64H314.011V450H312.569ZM316.293 450V442.65H317.735V450H316.293ZM316.993 441.026C316.685 441.026 316.447 440.947 316.279 440.788C316.111 440.629 316.027 440.405 316.027 440.116C316.027 439.845 316.111 439.626 316.279 439.458C316.456 439.29 316.694 439.206 316.993 439.206C317.301 439.206 317.539 439.285 317.707 439.444C317.875 439.603 317.959 439.827 317.959 440.116C317.959 440.387 317.87 440.606 317.693 440.774C317.525 440.942 317.292 441.026 316.993 441.026ZM323.073 450.14C322.392 450.14 321.781 449.972 321.239 449.636C320.707 449.3 320.283 448.843 319.965 448.264C319.657 447.685 319.503 447.037 319.503 446.318C319.503 445.599 319.657 444.951 319.965 444.372C320.283 443.793 320.707 443.336 321.239 443C321.781 442.664 322.392 442.496 323.073 442.496C323.727 442.496 324.319 442.631 324.851 442.902C325.393 443.163 325.803 443.523 326.083 443.98L325.285 444.96C325.136 444.745 324.945 444.549 324.711 444.372C324.478 444.195 324.231 444.055 323.969 443.952C323.708 443.849 323.456 443.798 323.213 443.798C322.765 443.798 322.364 443.91 322.009 444.134C321.664 444.349 321.389 444.647 321.183 445.03C320.978 445.413 320.875 445.842 320.875 446.318C320.875 446.794 320.983 447.223 321.197 447.606C321.412 447.979 321.697 448.278 322.051 448.502C322.406 448.726 322.798 448.838 323.227 448.838C323.479 448.838 323.722 448.796 323.955 448.712C324.198 448.628 324.431 448.502 324.655 448.334C324.879 448.166 325.089 447.961 325.285 447.718L326.083 448.698C325.785 449.118 325.355 449.463 324.795 449.734C324.245 450.005 323.671 450.14 323.073 450.14ZM328.47 453.22L329.954 449.79L329.968 450.938L326.3 442.65H327.98L330.276 448.054C330.323 448.147 330.379 448.292 330.444 448.488C330.51 448.675 330.566 448.861 330.612 449.048L330.248 449.132C330.323 448.936 330.393 448.74 330.458 448.544C330.533 448.348 330.603 448.152 330.668 447.956L332.586 442.65H334.294L331.27 450L330.024 453.22H328.47Z" fill="#70737C"/>
</svg>
